<svg width="328" height="307" viewBox="0 0 328 307" fill="none" xmlns="http://www.w3.org/2000/svg">
<rect opacity="0.02" width="328" height="307" rx="24" fill="white"/>
<g style="mix-blend-mode:luminosity" opacity="0.5">
<g clip-path="url(#clip0_2013_201)">
<path fill-rule="evenodd" clip-rule="evenodd" d="M290.547 307L327.943 307L327.943 282.08L290.547 307Z" fill="url(#paint0_linear_2013_201)"/>
<path fill-rule="evenodd" clip-rule="evenodd" d="M328.854 270.851L278.008 276.058L290.546 307L327.942 282.08L328.854 270.851Z" fill="url(#paint1_linear_2013_201)"/>
<path fill-rule="evenodd" clip-rule="evenodd" d="M278.009 276.057L254.719 307L290.547 307L278.009 276.057Z" fill="url(#paint2_linear_2013_201)"/>
<path fill-rule="evenodd" clip-rule="evenodd" d="M328.426 243.207L317.508 223.579L278.008 276.058L328.854 270.851L328.426 243.207Z" fill="url(#paint3_linear_2013_201)"/>
<path fill-rule="evenodd" clip-rule="evenodd" d="M328.428 243.206L328.428 194.724L317.51 223.578L328.428 243.206Z" fill="url(#paint4_linear_2013_201)"/>
<path fill-rule="evenodd" clip-rule="evenodd" d="M244.877 219.771L254.719 307L317.51 223.579L244.877 219.771Z" fill="url(#paint5_linear_2013_201)"/>
<path fill-rule="evenodd" clip-rule="evenodd" d="M244.877 219.772L260.476 192.288L289.974 199.932L317.51 223.579L244.877 219.772Z" fill="url(#paint6_linear_2013_201)"/>
<path fill-rule="evenodd" clip-rule="evenodd" d="M244.876 219.771L194.182 306.736L254.719 307L244.876 219.771Z" fill="url(#paint7_linear_2013_201)"/>
<path fill-rule="evenodd" clip-rule="evenodd" d="M218.816 231.129L244.877 219.771L194.182 306.736L218.816 231.129Z" fill="url(#paint8_linear_2013_201)"/>
<path fill-rule="evenodd" clip-rule="evenodd" d="M205.349 242.617L218.816 231.128L194.183 306.736L205.349 242.617Z" fill="url(#paint9_linear_2013_201)"/>
</g>
</g>
<defs>
<linearGradient id="paint0_linear_2013_201" x1="308.121" y1="307.104" x2="282.166" y2="273.074" gradientUnits="userSpaceOnUse">
<stop stop-color="#100C0E"/>
<stop offset="1" stop-color="#323232"/>
</linearGradient>
<linearGradient id="paint1_linear_2013_201" x1="314.292" y1="282.476" x2="260.875" y2="282.476" gradientUnits="userSpaceOnUse">
<stop stop-color="#100C0E"/>
<stop offset="1" stop-color="#323232"/>
</linearGradient>
<linearGradient id="paint2_linear_2013_201" x1="239.079" y1="300.58" x2="268.356" y2="284.846" gradientUnits="userSpaceOnUse">
<stop stop-color="#100C0E"/>
<stop offset="1" stop-color="#323232"/>
</linearGradient>
<linearGradient id="paint3_linear_2013_201" x1="262.8" y1="271.062" x2="337.956" y2="217.269" gradientUnits="userSpaceOnUse">
<stop stop-color="#100C0E"/>
<stop offset="1" stop-color="#323232"/>
</linearGradient>
<linearGradient id="paint4_linear_2013_201" x1="308.205" y1="231.996" x2="308.205" y2="181.035" gradientUnits="userSpaceOnUse">
<stop stop-color="#100C0E"/>
<stop offset="1" stop-color="#323232"/>
</linearGradient>
<linearGradient id="paint5_linear_2013_201" x1="242.467" y1="300.423" x2="267.737" y2="197.718" gradientUnits="userSpaceOnUse">
<stop stop-color="#100C0E"/>
<stop offset="1" stop-color="#323232"/>
</linearGradient>
<linearGradient id="paint6_linear_2013_201" x1="230.723" y1="219.503" x2="316.187" y2="173.221" gradientUnits="userSpaceOnUse">
<stop stop-color="#100C0E"/>
<stop offset="1" stop-color="#323232"/>
</linearGradient>
<linearGradient id="paint7_linear_2013_201" x1="187.163" y1="249.585" x2="267.981" y2="288.149" gradientUnits="userSpaceOnUse">
<stop stop-color="#100C0E"/>
<stop offset="1" stop-color="#323232"/>
</linearGradient>
<linearGradient id="paint8_linear_2013_201" x1="178.503" y1="231.2" x2="201.426" y2="257.94" gradientUnits="userSpaceOnUse">
<stop stop-color="#100C0E"/>
<stop offset="1" stop-color="#323232"/>
</linearGradient>
<linearGradient id="paint9_linear_2013_201" x1="198.233" y1="261.275" x2="172.162" y2="261.275" gradientUnits="userSpaceOnUse">
<stop stop-color="#100C0E"/>
<stop offset="1" stop-color="#323232"/>
</linearGradient>
<clipPath id="clip0_2013_201">
<rect x="328" y="159" width="148" height="229" rx="24" transform="rotate(90 328 159)" fill="white"/>
</clipPath>
</defs>
</svg>
