<svg width="23" height="17" viewBox="0 0 23 17" fill="none" xmlns="http://www.w3.org/2000/svg">
<path d="M14.2373 7.49181L14.3635 7.56561L14.4897 7.4918C14.9776 7.20648 15.5339 7.05391 16.1017 7.04999C16.5957 7.04663 17.0836 7.15588 17.5274 7.36906C17.9711 7.58223 18.3584 7.89346 18.6594 8.27817C18.9603 8.66287 19.1666 9.11065 19.2626 9.58647C19.3586 10.0623 19.3416 10.5535 19.213 11.0218C19.0844 11.4902 18.8476 11.9232 18.5207 12.2869C18.1939 12.6507 17.7859 12.9353 17.3284 13.1182C16.8709 13.3012 16.3765 13.3775 15.8839 13.341C15.3913 13.3046 14.9141 13.1564 14.4897 12.9082L14.3635 12.8344L14.2373 12.9082C13.7513 13.1924 13.1973 13.3449 12.6316 13.3499C12.066 13.3549 11.5093 13.2122 11.0182 12.9366C10.5271 12.661 10.1192 12.2624 9.83568 11.7818C9.55218 11.3011 9.40299 10.7554 9.40299 10.2C9.40299 9.64459 9.55218 9.09886 9.83568 8.61825C10.1192 8.1376 10.5271 7.73904 11.0182 7.46345C11.5093 7.18783 12.066 7.04514 12.6316 7.05013C13.1973 7.05511 13.7513 7.2076 14.2373 7.49181ZM12.8664 11.5825L13.0955 11.5632V11.3333V11.2427V11.1979L13.0799 11.1558C12.8405 10.5092 12.8405 9.80013 13.0799 9.15349L13.1942 8.84509L12.8664 8.81754C12.7909 8.8112 12.715 8.81092 12.6395 8.81671C12.2731 8.81942 11.9217 8.96399 11.6613 9.22055C11.3984 9.47968 11.25 9.83193 11.25 10.2C11.25 10.5681 11.3984 10.9203 11.6613 11.1795C11.9217 11.436 12.2732 11.5806 12.6395 11.5833C12.7151 11.5891 12.7909 11.5888 12.8664 11.5825ZM3.45 0.25H19.55C20.3999 0.25 21.2142 0.582748 21.814 1.1739C22.4138 1.76493 22.75 2.56576 22.75 3.4V13.6C22.75 14.4342 22.4138 15.2351 21.814 15.8261C21.2142 16.4173 20.3999 16.75 19.55 16.75H3.45C2.60014 16.75 1.78581 16.4173 1.18596 15.8261C0.586242 15.2351 0.25 14.4342 0.25 13.6V3.4C0.25 2.56576 0.586242 1.76493 1.18596 1.1739C1.78581 0.582747 2.60014 0.25 3.45 0.25ZM20.5387 14.5795C20.8016 14.3203 20.95 13.9681 20.95 13.6V3.4C20.95 3.03193 20.8016 2.67969 20.5387 2.42055C20.2758 2.16154 19.9201 2.01667 19.55 2.01667H3.45C3.07986 2.01667 2.72417 2.16154 2.46135 2.42055C2.1984 2.67968 2.05 3.03193 2.05 3.4V13.6C2.05 13.9681 2.1984 14.3203 2.46135 14.5795C2.72417 14.8385 3.07987 14.9833 3.45 14.9833H19.55C19.9201 14.9833 20.2758 14.8385 20.5387 14.5795ZM15.3236 11.3511C15.5537 11.5027 15.8239 11.5833 16.1 11.5833C16.4701 11.5833 16.8258 11.4385 17.0887 11.1795C17.3516 10.9203 17.5 10.5681 17.5 10.2C17.5 9.92558 17.4174 9.65763 17.2631 9.43006C17.1088 9.20253 16.89 9.02573 16.6346 8.92148C16.3792 8.81723 16.0984 8.79002 15.8276 8.84311C15.5567 8.89621 15.3074 9.02737 15.1113 9.22055C14.9153 9.41377 14.7813 9.66039 14.727 9.92944C14.6727 10.1985 14.7006 10.4774 14.8071 10.7306C14.9135 10.9838 15.0934 11.1996 15.3236 11.3511Z" fill="white" stroke="#1F1F1F" stroke-width="0.5"/>
</svg>
