<svg width="74" height="103" viewBox="0 0 74 103" fill="none" xmlns="http://www.w3.org/2000/svg">
<g filter="url(#filter0_i_1_308)">
<path fill-rule="evenodd" clip-rule="evenodd" d="M29.5109 14.2554C35.6078 20.5888 37.1816 29.2132 33.5858 34.6546L33.9183 34.5505L32.6556 35.8605C32.4874 36.0483 32.3117 36.2308 32.1282 36.4077C31.7376 36.7834 31.3241 37.1246 30.8895 37.4312C25.3524 41.322 16.4188 39.5203 10.112 32.9693C3.61189 26.2169 2.25475 16.8606 6.8207 11.5338H6.81882L8.82342 9.27023L8.77921 9.76329C14.3186 5.91111 23.2221 7.72069 29.5109 14.2554Z" fill="#A37C1A"/>
</g>
<g filter="url(#filter1_i_1_308)">
<path d="M12.3556 30.5978C5.53179 23.5092 4.12194 13.7865 9.20663 8.88142C14.2913 3.97633 23.9451 5.74636 30.7689 12.8349C37.5927 19.9234 39.0026 29.6462 33.9179 34.5512C28.8332 39.4563 19.1794 37.6863 12.3556 30.5978Z" fill="url(#paint0_linear_1_308)"/>
</g>
<g opacity="0.6" clip-path="url(#clip0_1_308)" filter="url(#filter2_i_1_308)">
<path d="M18.1911 20.7148C18.2453 20.6599 18.2832 20.6562 18.3447 20.7038C18.5235 20.841 18.7078 20.9691 18.8884 21.1009C19.7429 21.7232 20.5974 22.3454 21.4519 22.9677C21.4754 22.9842 21.5025 22.9951 21.5549 23.0226C21.4176 22.7151 21.2947 22.4406 21.1701 22.1661C20.7203 21.1741 20.2704 20.184 19.8206 19.1939C19.7971 19.1426 19.8025 19.1115 19.8423 19.0713C20.2018 18.7126 20.5595 18.352 20.919 17.9933C21.0689 17.8432 21.2225 17.695 21.3851 17.5358C21.4067 17.5797 21.4248 17.6108 21.4375 17.6437C21.8801 18.7601 22.3227 19.8765 22.7653 20.9929C23.2024 22.0965 23.636 23.2001 24.075 24.3019C24.0894 24.3403 24.1184 24.3879 24.1509 24.3989C24.3044 24.4501 24.458 24.5087 24.617 24.5288C24.9403 24.5709 25.2005 24.4099 25.4425 24.214C25.5347 24.139 25.6214 24.0585 25.7226 23.9688C25.8129 24.0713 25.8924 24.1646 25.9737 24.2579C26.3458 24.6899 26.7162 25.1218 27.0901 25.5519C27.1371 25.6068 27.1407 25.6416 27.0883 25.6965C26.8534 25.9399 26.6005 26.1613 26.3151 26.3425C25.7768 26.6847 25.1932 26.8257 24.5591 26.7451C23.9142 26.6646 23.3289 26.4102 22.7833 26.068C20.8955 24.8857 19.0149 23.6924 17.1307 22.501C16.988 22.4113 16.847 22.318 16.6971 22.2228C16.8037 22.113 16.8976 22.0142 16.9952 21.9172C17.3944 21.5164 17.7955 21.1174 18.1929 20.7148H18.1911Z" fill="#96731A"/>
<path d="M18.9372 18.9541C18.8216 18.9303 18.7023 18.9175 18.5921 18.8791C18.0845 18.7016 17.7485 18.147 17.7973 17.5815C17.846 17.016 18.3157 16.6664 18.8631 16.7909C19.4539 16.9245 19.8784 17.5797 19.7736 18.1928C19.6959 18.6521 19.3762 18.9376 18.9354 18.9541H18.9372Z" fill="#96731A"/>
<path d="M16.1497 19.1134C16.2509 18.6448 16.6736 18.3612 17.1379 18.449C17.7304 18.5606 18.1748 19.1609 18.117 19.7704C18.07 20.2718 17.7376 20.6013 17.2806 20.6068C17.2192 20.6013 17.1577 20.6013 17.0981 20.5903C16.4532 20.4713 16.0052 19.7759 16.1479 19.1134H16.1497Z" fill="#96731A"/>
</g>
<g opacity="0.4" filter="url(#filter3_i_1_308)">
<path d="M14.5517 28.4791C9.3553 23.0812 8.28149 15.6775 12.1533 11.9425C16.025 8.20746 23.3762 9.55555 28.5726 14.9535C33.7689 20.3515 34.8428 27.7552 30.971 31.4902C27.0992 35.2252 19.7481 33.8771 14.5517 28.4791Z" stroke="#826523" stroke-miterlimit="10"/>
</g>
<g clip-path="url(#clip1_1_308)">
<g filter="url(#filter4_i_1_308)">
<path fill-rule="evenodd" clip-rule="evenodd" d="M25.3136 54.6379C13.6172 66.7881 10.5981 83.3332 17.4964 93.772L16.8584 93.5724L19.2809 96.0857C19.6035 96.4459 19.9407 96.796 20.2926 97.1354C21.0419 97.8561 21.8352 98.5105 22.669 99.0988C33.2915 106.563 50.4299 103.107 62.5289 90.539C74.9989 77.5851 77.6025 59.6358 68.8431 49.4166H68.8466L65.001 45.0742L65.0858 46.0201C54.4589 38.63 37.3783 42.1015 25.3136 54.6379Z" fill="#A37C1A"/>
</g>
<g filter="url(#filter5_i_1_308)">
<path d="M58.2247 85.9894C71.3157 72.3907 74.0204 53.7384 64.2658 44.3283C54.5112 34.9183 35.9913 38.314 22.9003 51.9128C9.80934 65.5115 7.10466 84.1638 16.8592 93.5739C26.6138 102.984 45.1338 99.5882 58.2247 85.9894Z" fill="url(#paint1_linear_1_308)"/>
</g>
<mask id="mask0_1_308" style="mask-type:alpha" maskUnits="userSpaceOnUse" x="11" y="39" width="60" height="60">
<path d="M58.2245 85.9894C71.3154 72.3907 74.0201 53.7384 64.2656 44.3283C54.511 34.9183 35.991 38.314 22.9001 51.9128C9.8091 65.5115 7.10442 84.1638 16.859 93.5739C26.6136 102.984 45.1335 99.5882 58.2245 85.9894Z" fill="url(#paint2_linear_1_308)"/>
</mask>
<g mask="url(#mask0_1_308)">
<path d="M66.6193 17.0872L-8.19586 65.4885L0.270849 77.708L77.0347 29.7568L66.6193 17.0872Z" fill="url(#paint3_linear_1_308)" fill-opacity="0.4"/>
<path d="M75.6193 64.0872L0.804139 112.489L9.27085 124.708L86.0347 76.7568L75.6193 64.0872Z" fill="url(#paint4_linear_1_308)" fill-opacity="0.4"/>
<path d="M73.7804 56.8418L-1.03473 105.243L2 110L77 62L73.7804 56.8418Z" fill="url(#paint5_linear_1_308)" fill-opacity="0.4"/>
</g>
<g opacity="0.6" clip-path="url(#clip2_1_308)" filter="url(#filter6_i_1_308)">
<path d="M47.0545 66.504C46.951 66.3997 46.8786 66.3927 46.7614 66.4831C46.4199 66.7439 46.0681 66.9874 45.7233 67.2377C44.0919 68.42 42.4606 69.6023 40.8293 70.7846C40.7845 70.8159 40.7328 70.8367 40.6328 70.8889C40.8949 70.3047 41.1294 69.7831 41.3674 69.2615C42.2261 67.3768 43.0849 65.4956 43.9436 63.6144C43.9885 63.517 43.9781 63.4579 43.9023 63.3814C43.2159 62.6998 42.5331 62.0148 41.8468 61.3333C41.5605 61.0481 41.2673 60.7665 40.957 60.4639C40.9156 60.5474 40.8811 60.6065 40.8569 60.6691C40.012 62.7902 39.167 64.9114 38.322 67.0326C37.4874 69.1294 36.6597 71.2262 35.8216 73.3195C35.794 73.3926 35.7389 73.483 35.6768 73.5038C35.3836 73.6012 35.0905 73.7125 34.787 73.7507C34.1696 73.8307 33.673 73.5247 33.2109 73.1526C33.035 73.01 32.8694 72.857 32.6763 72.6867C32.5038 72.8814 32.3521 73.0587 32.1969 73.2361C31.4864 74.0567 30.7794 74.8774 30.0655 75.6945C29.9758 75.7988 29.9689 75.8649 30.069 75.9692C30.5173 76.4317 31.0001 76.8525 31.5451 77.1967C32.5728 77.847 33.6868 78.1147 34.8973 77.9617C36.1286 77.8087 37.246 77.3254 38.2875 76.6751C41.8916 74.4288 45.4818 72.1616 49.079 69.8979C49.3514 69.7275 49.6204 69.5501 49.9067 69.3693C49.7032 69.1607 49.5239 68.9729 49.3376 68.7886C48.5754 68.0271 47.8098 67.269 47.0511 66.504H47.0545Z" fill="#96731A"/>
<path d="M45.6302 63.1589C45.8509 63.1137 46.0785 63.0893 46.2889 63.0163C47.258 62.679 47.8995 61.6254 47.8064 60.5509C47.7133 59.4764 46.8166 58.8123 45.7716 59.0487C44.6438 59.3026 43.8333 60.5474 44.0333 61.7123C44.1816 62.5851 44.7921 63.1276 45.6336 63.1589H45.6302Z" fill="#96731A"/>
<path d="M50.9517 63.4614C50.7586 62.5712 49.9516 62.0322 49.0652 62.1991C47.934 62.4112 47.0856 63.5518 47.1959 64.7097C47.2856 65.6625 47.9202 66.2884 48.7928 66.2988C48.91 66.2884 49.0273 66.2884 49.1411 66.2675C50.3723 66.0415 51.2276 64.7201 50.9552 63.4614H50.9517Z" fill="#96731A"/>
</g>
<g opacity="0.4" filter="url(#filter7_i_1_308)">
<path d="M54.0114 81.925C63.9802 71.5694 66.0402 57.366 58.6126 50.2007C51.1849 43.0354 37.0823 45.6216 27.1134 55.9771C17.1446 66.3327 15.0845 80.5361 22.5122 87.7014C29.9399 94.8667 44.0425 92.2805 54.0114 81.925Z" stroke="#826523" stroke-width="2" stroke-miterlimit="10"/>
</g>
</g>
<mask id="mask1_1_308" style="mask-type:alpha" maskUnits="userSpaceOnUse" x="6" y="6" width="31" height="32">
<path d="M12.3556 30.5978C5.53179 23.5092 4.12194 13.7865 9.20663 8.88142C14.2913 3.97633 23.9451 5.74636 30.7689 12.8349C37.5927 19.9234 39.0026 29.6462 33.9179 34.5512C28.8332 39.4563 19.1794 37.6863 12.3556 30.5978Z" fill="url(#paint6_linear_1_308)"/>
</mask>
<g mask="url(#mask1_1_308)">
<path d="M17.0571 4.69076L46.071 35.0481L50.9796 30.0494L22.002 -1.24973L17.0571 4.69076Z" fill="url(#paint7_linear_1_308)" fill-opacity="0.4"/>
<path d="M12.8278 5.22092L41.8418 35.5782L43.7757 33.7532L14.9312 3.27491L12.8278 5.22092Z" fill="url(#paint8_linear_1_308)" fill-opacity="0.4"/>
</g>
<defs>
<filter id="filter0_i_1_308" x="-9.86548" y="6.75903" width="45.3552" height="32.706" filterUnits="userSpaceOnUse" color-interpolation-filters="sRGB">
<feFlood flood-opacity="0" result="BackgroundImageFix"/>
<feBlend mode="normal" in="SourceGraphic" in2="BackgroundImageFix" result="shape"/>
<feColorMatrix in="SourceAlpha" type="matrix" values="0 0 0 0 0 0 0 0 0 0 0 0 0 0 0 0 0 0 127 0" result="hardAlpha"/>
<feOffset dx="-14" dy="-1"/>
<feGaussianBlur stdDeviation="9.5"/>
<feComposite in2="hardAlpha" operator="arithmetic" k2="-1" k3="1"/>
<feColorMatrix type="matrix" values="0 0 0 0 0.433333 0 0 0 0 0.0379167 0 0 0 0 0.0379167 0 0 0 0.7 0"/>
<feBlend mode="normal" in2="shape" result="effect1_innerShadow_1_308"/>
</filter>
<filter id="filter1_i_1_308" x="6.15283" y="6.10675" width="35.8188" height="35.2192" filterUnits="userSpaceOnUse" color-interpolation-filters="sRGB">
<feFlood flood-opacity="0" result="BackgroundImageFix"/>
<feBlend mode="normal" in="SourceGraphic" in2="BackgroundImageFix" result="shape"/>
<feColorMatrix in="SourceAlpha" type="matrix" values="0 0 0 0 0 0 0 0 0 0 0 0 0 0 0 0 0 0 127 0" result="hardAlpha"/>
<feOffset dx="5" dy="4"/>
<feGaussianBlur stdDeviation="3.5"/>
<feComposite in2="hardAlpha" operator="arithmetic" k2="-1" k3="1"/>
<feColorMatrix type="matrix" values="0 0 0 0 1 0 0 0 0 1 0 0 0 0 1 0 0 0 0.4 0"/>
<feBlend mode="normal" in2="shape" result="effect1_innerShadow_1_308"/>
</filter>
<filter id="filter2_i_1_308" x="16.1245" y="16.7653" width="12" height="11" filterUnits="userSpaceOnUse" color-interpolation-filters="sRGB">
<feFlood flood-opacity="0" result="BackgroundImageFix"/>
<feBlend mode="normal" in="SourceGraphic" in2="BackgroundImageFix" result="shape"/>
<feColorMatrix in="SourceAlpha" type="matrix" values="0 0 0 0 0 0 0 0 0 0 0 0 0 0 0 0 0 0 127 0" result="hardAlpha"/>
<feOffset dx="1" dy="1"/>
<feGaussianBlur stdDeviation="1"/>
<feComposite in2="hardAlpha" operator="arithmetic" k2="-1" k3="1"/>
<feColorMatrix type="matrix" values="0 0 0 0 0 0 0 0 0 0 0 0 0 0 0 0 0 0 0.5 0"/>
<feBlend mode="normal" in2="shape" result="effect1_innerShadow_1_308"/>
</filter>
<filter id="filter3_i_1_308" x="9.32837" y="9.32977" width="25.4675" height="25.7731" filterUnits="userSpaceOnUse" color-interpolation-filters="sRGB">
<feFlood flood-opacity="0" result="BackgroundImageFix"/>
<feBlend mode="normal" in="SourceGraphic" in2="BackgroundImageFix" result="shape"/>
<feColorMatrix in="SourceAlpha" type="matrix" values="0 0 0 0 0 0 0 0 0 0 0 0 0 0 0 0 0 0 127 0" result="hardAlpha"/>
<feOffset dx="1" dy="1"/>
<feGaussianBlur stdDeviation="0.5"/>
<feComposite in2="hardAlpha" operator="arithmetic" k2="-1" k3="1"/>
<feColorMatrix type="matrix" values="0 0 0 0 0 0 0 0 0 0 0 0 0 0 0 0 0 0 0.2 0"/>
<feBlend mode="normal" in2="shape" result="effect1_innerShadow_1_308"/>
</filter>
<filter id="filter4_i_1_308" x="13.8438" y="38.1751" width="80.1528" height="64.8255" filterUnits="userSpaceOnUse" color-interpolation-filters="sRGB">
<feFlood flood-opacity="0" result="BackgroundImageFix"/>
<feBlend mode="normal" in="SourceGraphic" in2="BackgroundImageFix" result="shape"/>
<feColorMatrix in="SourceAlpha" type="matrix" values="0 0 0 0 0 0 0 0 0 0 0 0 0 0 0 0 0 0 127 0" result="hardAlpha"/>
<feOffset dx="25" dy="-4"/>
<feGaussianBlur stdDeviation="10"/>
<feComposite in2="hardAlpha" operator="arithmetic" k2="-1" k3="1"/>
<feColorMatrix type="matrix" values="0 0 0 0 0.433333 0 0 0 0 0.0379167 0 0 0 0 0.0379167 0 0 0 0.7 0"/>
<feBlend mode="normal" in2="shape" result="effect1_innerShadow_1_308"/>
</filter>
<filter id="filter5_i_1_308" x="11.0005" y="39.0054" width="63.124" height="63.8915" filterUnits="userSpaceOnUse" color-interpolation-filters="sRGB">
<feFlood flood-opacity="0" result="BackgroundImageFix"/>
<feBlend mode="normal" in="SourceGraphic" in2="BackgroundImageFix" result="shape"/>
<feColorMatrix in="SourceAlpha" type="matrix" values="0 0 0 0 0 0 0 0 0 0 0 0 0 0 0 0 0 0 127 0" result="hardAlpha"/>
<feOffset dx="4" dy="4"/>
<feGaussianBlur stdDeviation="7"/>
<feComposite in2="hardAlpha" operator="arithmetic" k2="-1" k3="1"/>
<feColorMatrix type="matrix" values="0 0 0 0 1 0 0 0 0 1 0 0 0 0 1 0 0 0 0.25 0"/>
<feBlend mode="normal" in2="shape" result="effect1_innerShadow_1_308"/>
</filter>
<filter id="filter6_i_1_308" x="30" y="59" width="22" height="20" filterUnits="userSpaceOnUse" color-interpolation-filters="sRGB">
<feFlood flood-opacity="0" result="BackgroundImageFix"/>
<feBlend mode="normal" in="SourceGraphic" in2="BackgroundImageFix" result="shape"/>
<feColorMatrix in="SourceAlpha" type="matrix" values="0 0 0 0 0 0 0 0 0 0 0 0 0 0 0 0 0 0 127 0" result="hardAlpha"/>
<feOffset dx="1" dy="1"/>
<feGaussianBlur stdDeviation="1"/>
<feComposite in2="hardAlpha" operator="arithmetic" k2="-1" k3="1"/>
<feColorMatrix type="matrix" values="0 0 0 0 0 0 0 0 0 0 0 0 0 0 0 0 0 0 0.5 0"/>
<feBlend mode="normal" in2="shape" result="effect1_innerShadow_1_308"/>
</filter>
<filter id="filter7_i_1_308" x="17.0522" y="45.1477" width="48.0203" height="48.6067" filterUnits="userSpaceOnUse" color-interpolation-filters="sRGB">
<feFlood flood-opacity="0" result="BackgroundImageFix"/>
<feBlend mode="normal" in="SourceGraphic" in2="BackgroundImageFix" result="shape"/>
<feColorMatrix in="SourceAlpha" type="matrix" values="0 0 0 0 0 0 0 0 0 0 0 0 0 0 0 0 0 0 127 0" result="hardAlpha"/>
<feOffset dx="1" dy="1"/>
<feGaussianBlur stdDeviation="0.5"/>
<feComposite in2="hardAlpha" operator="arithmetic" k2="-1" k3="1"/>
<feColorMatrix type="matrix" values="0 0 0 0 0 0 0 0 0 0 0 0 0 0 0 0 0 0 0.2 0"/>
<feBlend mode="normal" in2="shape" result="effect1_innerShadow_1_308"/>
</filter>
<linearGradient id="paint0_linear_1_308" x1="30.7689" y1="12.8349" x2="7.97017" y2="34.7822" gradientUnits="userSpaceOnUse">
<stop stop-color="#C9B379"/>
<stop offset="1" stop-color="#C99A1E"/>
</linearGradient>
<linearGradient id="paint1_linear_1_308" x1="22.9003" y1="51.9128" x2="66.6378" y2="94.017" gradientUnits="userSpaceOnUse">
<stop stop-color="#C9B379"/>
<stop offset="1" stop-color="#C99A1E"/>
</linearGradient>
<linearGradient id="paint2_linear_1_308" x1="22.9001" y1="51.9128" x2="66.6376" y2="94.017" gradientUnits="userSpaceOnUse">
<stop stop-color="#C9B379"/>
<stop offset="1" stop-color="#C99A1E"/>
</linearGradient>
<linearGradient id="paint3_linear_1_308" x1="64" y1="39" x2="10.5" y2="75" gradientUnits="userSpaceOnUse">
<stop stop-color="white"/>
<stop offset="1" stop-color="white" stop-opacity="0"/>
</linearGradient>
<linearGradient id="paint4_linear_1_308" x1="73" y1="86" x2="19.5" y2="122" gradientUnits="userSpaceOnUse">
<stop stop-color="white"/>
<stop offset="1" stop-color="white" stop-opacity="0"/>
</linearGradient>
<linearGradient id="paint5_linear_1_308" x1="64.2867" y1="75.326" x2="15.4324" y2="106.868" gradientUnits="userSpaceOnUse">
<stop stop-color="white"/>
<stop offset="1" stop-color="white" stop-opacity="0"/>
</linearGradient>
<linearGradient id="paint6_linear_1_308" x1="30.7689" y1="12.8349" x2="7.97017" y2="34.7822" gradientUnits="userSpaceOnUse">
<stop stop-color="#C9B379"/>
<stop offset="1" stop-color="#C99A1E"/>
</linearGradient>
<linearGradient id="paint7_linear_1_308" x1="27.4321" y1="3.96768" x2="48.8225" y2="25.5534" gradientUnits="userSpaceOnUse">
<stop stop-color="#F5F5F5"/>
<stop offset="1" stop-color="white" stop-opacity="0"/>
</linearGradient>
<linearGradient id="paint8_linear_1_308" x1="22.2229" y1="7.98293" x2="41.1393" y2="27.8119" gradientUnits="userSpaceOnUse">
<stop stop-color="#F5F5F5"/>
<stop offset="1" stop-color="white" stop-opacity="0"/>
</linearGradient>
<clipPath id="clip0_1_308">
<rect width="11" height="10" fill="white" transform="matrix(-1 0 0 1 27.1245 16.7653)"/>
</clipPath>
<clipPath id="clip1_1_308">
<rect width="63" height="64" fill="white" transform="translate(11 39)"/>
</clipPath>
<clipPath id="clip2_1_308">
<rect width="21" height="19" fill="white" transform="translate(30 59)"/>
</clipPath>
</defs>
</svg>
