<svg width="41" height="41" viewBox="0 0 41 41" fill="none" xmlns="http://www.w3.org/2000/svg">
<circle opacity="0.1" cx="20.5" cy="20.5" r="20" stroke="url(#paint0_linear_2001_191)"/>
<g opacity="0.3">
<path d="M17.2242 9.49002C16.9044 9.35523 16.5734 9.27567 16.253 9.28378C15.1143 9.28721 14.165 9.99861 13.8718 11.0719C13.7903 11.3702 13.7644 11.6847 13.7211 11.993C13.6643 12.3989 13.3798 12.6773 12.9689 12.7247C12.7315 12.7521 12.4932 12.7768 12.2589 12.8214C10.9754 13.066 10.0981 14.2991 10.3196 15.589C10.3827 15.9565 10.5427 16.3097 10.6778 16.6623C10.8438 17.096 10.7592 17.4448 10.3933 17.7247C10.2282 17.8511 10.0595 17.9731 9.8988 18.1051C8.8044 19.004 8.6896 20.6421 9.66357 21.6667C9.89069 21.9057 10.1711 22.0942 10.4295 22.3029C10.7467 22.5597 10.8438 22.9138 10.6925 23.2926C10.6173 23.4808 10.5343 23.6655 10.4591 23.8536C9.88538 25.292 10.7389 26.872 12.2579 27.1753C12.5225 27.2284 12.7936 27.2465 13.0594 27.293C13.4141 27.355 13.6705 27.6331 13.7183 27.9909C13.7492 28.2228 13.775 28.4552 13.8112 28.6861C14.0196 30.0131 15.3595 30.9541 16.6705 30.6714C17.0217 30.5959 17.3571 30.4412 17.6956 30.3111C18.0937 30.1582 18.4462 30.248 18.7073 30.586C18.8218 30.7339 18.9338 30.8839 19.048 31.0321C20.0348 32.3142 21.9387 32.3242 22.9352 31.0524C23.0603 30.8927 23.1797 30.7289 23.3045 30.5691C23.5476 30.2577 23.9129 30.1569 24.2791 30.3026C24.4819 30.3831 24.68 30.4746 24.8834 30.5532C26.2489 31.0814 27.7554 30.3236 28.1329 28.9073C28.2137 28.6031 28.2352 28.283 28.2842 27.9703C28.3394 27.619 28.5949 27.3522 28.945 27.2923C29.1546 27.2564 29.3661 27.2309 29.5777 27.2056C30.9825 27.0374 31.9736 25.6602 31.6601 24.2823C31.5861 23.9566 31.442 23.6455 31.3188 23.3322C31.1516 22.9079 31.2392 22.5588 31.598 22.2817C31.7546 22.1613 31.9143 22.0452 32.0691 21.9222C33.1535 21.0608 33.3204 19.4676 32.4119 18.4243C32.1695 18.1456 31.8526 17.9313 31.5637 17.6948C31.2573 17.4442 31.155 17.0823 31.3019 16.7169C31.3815 16.5194 31.4691 16.325 31.5471 16.1269C32.0616 14.818 31.3871 13.349 30.0494 12.9122C29.7177 12.8039 29.3587 12.7752 29.0102 12.7247C28.6246 12.6688 28.3416 12.4058 28.2839 12.0201C28.2508 11.7996 28.2243 11.5777 28.1947 11.3562C28.0197 10.0467 26.6985 9.06912 25.3997 9.3181C25.0275 9.38955 24.6707 9.55087 24.3131 9.68753C23.9113 9.84135 23.5522 9.75274 23.288 9.40984C23.1804 9.26974 23.0746 9.12809 22.9673 8.98768C21.9674 7.67972 20.0622 7.66911 19.0495 8.96615C18.9248 9.1259 18.8068 9.29096 18.6805 9.44946C18.4481 9.74026 18.0887 9.83823 17.7421 9.70531C17.5677 9.63823 17.3964 9.56272 17.2242 9.49002Z" stroke="white" stroke-width="1.5" stroke-miterlimit="10"/>
<path d="M17.8209 19.067C18.2658 19.067 18.7007 18.935 19.0706 18.6879C19.4405 18.4407 19.7288 18.0894 19.899 17.6784C20.0693 17.2674 20.1138 16.8151 20.027 16.3787C19.9403 15.9424 19.726 15.5416 19.4114 15.227C19.0969 14.9124 18.696 14.6982 18.2597 14.6114C17.8234 14.5246 17.3711 14.5692 16.9601 14.7394C16.549 14.9097 16.1977 15.198 15.9506 15.5679C15.7034 15.9378 15.5715 16.3727 15.5715 16.8176C15.5721 17.414 15.8093 17.9857 16.231 18.4074C16.6527 18.8291 17.2245 19.0663 17.8209 19.067ZM17.8209 16.0678C17.9692 16.0678 18.1141 16.1118 18.2374 16.1941C18.3607 16.2765 18.4568 16.3936 18.5136 16.5306C18.5703 16.6677 18.5852 16.8184 18.5563 16.9639C18.5273 17.1093 18.4559 17.2429 18.3511 17.3478C18.2462 17.4526 18.1126 17.524 17.9672 17.553C17.8217 17.5819 17.6709 17.5671 17.5339 17.5103C17.3969 17.4536 17.2798 17.3574 17.1974 17.2341C17.1151 17.1108 17.0711 16.9659 17.0711 16.8176C17.0712 16.6188 17.1502 16.4281 17.2908 16.2875C17.4314 16.147 17.6221 16.0679 17.8209 16.0678ZM24.1824 20.9298C23.7376 20.9298 23.3027 21.0617 22.9327 21.3088C22.5628 21.556 22.2745 21.9073 22.1043 22.3183C21.934 22.7294 21.8895 23.1816 21.9763 23.618C22.0631 24.0543 22.2773 24.4551 22.5919 24.7697C22.9065 25.0843 23.3073 25.2985 23.7436 25.3853C24.1799 25.4721 24.6322 25.4276 25.0432 25.2573C25.4543 25.0871 25.8056 24.7988 26.0527 24.4288C26.2999 24.0589 26.4318 23.624 26.4318 23.1791C26.4312 22.5828 26.194 22.011 25.7723 21.5893C25.3506 21.1676 24.7788 20.9304 24.1824 20.9298ZM24.1824 23.9289C24.0341 23.9289 23.8892 23.885 23.7659 23.8026C23.6426 23.7202 23.5465 23.6031 23.4897 23.4661C23.433 23.3291 23.4181 23.1783 23.4471 23.0329C23.476 22.8874 23.5474 22.7538 23.6523 22.649C23.7571 22.5441 23.8907 22.4727 24.0362 22.4438C24.1816 22.4148 24.3324 22.4297 24.4694 22.4864C24.6064 22.5432 24.7235 22.6393 24.8059 22.7626C24.8883 22.8859 24.9322 23.0309 24.9322 23.1791C24.9321 23.378 24.8531 23.5686 24.7125 23.7092C24.5719 23.8498 24.3813 23.9288 24.1824 23.9289ZM26.7804 14.2197C26.7107 14.15 26.6281 14.0948 26.5371 14.0571C26.4462 14.0194 26.3487 14 26.2502 14C26.1518 14 26.0543 14.0194 25.9633 14.0571C25.8723 14.0948 25.7897 14.15 25.7201 14.2197L15.2229 24.7168C15.1526 24.7863 15.0967 24.869 15.0584 24.9601C15.0202 25.0513 15.0003 25.1491 15 25.2479C14.9997 25.3468 15.0189 25.4447 15.0566 25.5361C15.0943 25.6275 15.1497 25.7105 15.2196 25.7804C15.2895 25.8503 15.3725 25.9057 15.4639 25.9434C15.5553 25.9811 15.6532 26.0003 15.7521 26C15.8509 25.9997 15.9488 25.9798 16.0399 25.9416C16.131 25.9033 16.2137 25.8474 16.2832 25.7771L26.7804 15.2799C26.85 15.2103 26.9052 15.1276 26.9429 15.0367C26.9806 14.9457 27 14.8482 27 14.7498C27 14.6513 26.9806 14.5538 26.9429 14.4629C26.9052 14.3719 26.85 14.2893 26.7804 14.2197Z" fill="white"/>
</g>
<defs>
<linearGradient id="paint0_linear_2001_191" x1="0" y1="0" x2="5.73744e-07" y2="41" gradientUnits="userSpaceOnUse">
<stop stop-color="white"/>
<stop offset="1" stop-color="white" stop-opacity="0"/>
</linearGradient>
</defs>
</svg>
