<svg width="24" height="25" viewBox="0 0 24 25" fill="none" xmlns="http://www.w3.org/2000/svg">
<path d="M10.94 6.58C11.2908 6.52624 11.6451 6.49949 12 6.5C15.18 6.5 18.17 8.79 19.91 12.5C19.6439 13.0646 19.3433 13.6123 19.01 14.14C18.9042 14.3038 18.8486 14.495 18.85 14.69C18.8522 14.9082 18.9258 15.1198 19.0595 15.2923C19.1931 15.4648 19.3796 15.5889 19.5903 15.6455C19.8011 15.7022 20.0246 15.6883 20.2268 15.6061C20.4289 15.5238 20.5986 15.3777 20.71 15.19C21.1759 14.4579 21.5806 13.6887 21.92 12.89C21.9737 12.7652 22.0013 12.6308 22.0013 12.495C22.0013 12.3592 21.9737 12.2248 21.92 12.1C19.9 7.41 16.1 4.5 12 4.5C11.5307 4.49764 11.0621 4.5378 10.6 4.62C10.4687 4.64233 10.343 4.6903 10.2303 4.76118C10.1175 4.83206 10.0198 4.92446 9.94269 5.0331C9.86561 5.14175 9.8107 5.26451 9.78107 5.39438C9.75144 5.52425 9.74768 5.65868 9.77 5.79C9.79233 5.92132 9.8403 6.04696 9.91118 6.15975C9.98206 6.27253 10.0745 6.37024 10.1831 6.44732C10.2917 6.52439 10.4145 6.57931 10.5444 6.60894C10.6742 6.63857 10.8087 6.64233 10.94 6.62V6.58ZM3.71 2.79C3.61676 2.69676 3.50607 2.6228 3.38425 2.57234C3.26243 2.52188 3.13186 2.49591 3 2.49591C2.86814 2.49591 2.73758 2.52188 2.61575 2.57234C2.49393 2.6228 2.38324 2.69676 2.29 2.79C2.1017 2.97831 1.99591 3.2337 1.99591 3.5C1.99591 3.7663 2.1017 4.0217 2.29 4.21L5.39 7.3C3.97558 8.66153 2.84986 10.294 2.08 12.1C2.02494 12.2262 1.99652 12.3623 1.99652 12.5C1.99652 12.6377 2.02494 12.7738 2.08 12.9C4.1 17.59 7.9 20.5 12 20.5C13.7971 20.4876 15.5518 19.9525 17.05 18.96L20.29 22.21C20.383 22.3037 20.4936 22.3781 20.6154 22.4289C20.7373 22.4797 20.868 22.5058 21 22.5058C21.132 22.5058 21.2627 22.4797 21.3846 22.4289C21.5064 22.3781 21.617 22.3037 21.71 22.21C21.8037 22.117 21.8781 22.0064 21.9289 21.8846C21.9797 21.7627 22.0058 21.632 22.0058 21.5C22.0058 21.368 21.9797 21.2373 21.9289 21.1154C21.8781 20.9936 21.8037 20.883 21.71 20.79L3.71 2.79ZM10.07 11.98L12.52 14.43C12.351 14.4785 12.1758 14.502 12 14.5C11.4696 14.5 10.9609 14.2893 10.5858 13.9142C10.2107 13.5391 10 13.0304 10 12.5C9.99795 12.3242 10.0215 12.149 10.07 11.98ZM12 18.5C8.82 18.5 5.83 16.21 4.1 12.5C4.74609 11.0738 5.66307 9.78658 6.8 8.71L8.57 10.5C8.15425 11.2588 7.99574 12.1319 8.11826 12.9885C8.24078 13.845 8.63772 14.6387 9.24953 15.2505C9.86134 15.8623 10.655 16.2592 11.5115 16.3817C12.3681 16.5043 13.2412 16.3458 14 15.93L15.59 17.5C14.5011 18.1409 13.2634 18.4856 12 18.5Z" fill="#A90808"/>
</svg>
