<svg width="41" height="41" viewBox="0 0 41 41" fill="none" xmlns="http://www.w3.org/2000/svg">
<circle cx="20.5" cy="20.5" r="20" stroke="url(#paint0_linear_1_2569)"/>
<path d="M9 16.9767V28.2791L22 31V19.6977L15.2903 13L9 16.9767Z" fill="url(#paint1_linear_1_2569)"/>
<path d="M13 28.9286V21L18 22.0714V30L13 28.9286Z" stroke="white" stroke-linejoin="round"/>
<path d="M31 24.3659V14L22 19.8049V31L31 24.3659Z" stroke="white" stroke-linejoin="round"/>
<path d="M9 16.9767V28.2791L22 31V19.6977L15.5 13L9 16.9767Z" stroke="white" stroke-linejoin="round"/>
<path d="M24.4737 7L15.5 13L21.7368 20L31 13.9333L24.4737 7Z" fill="url(#paint2_linear_1_2569)" stroke="white" stroke-linejoin="round"/>
<defs>
<linearGradient id="paint0_linear_1_2569" x1="20.5" y1="0" x2="20.5" y2="41" gradientUnits="userSpaceOnUse">
<stop offset="0.0151992" stop-color="white"/>
<stop offset="1" stop-color="#0D0D0D"/>
</linearGradient>
<linearGradient id="paint1_linear_1_2569" x1="16" y1="14" x2="15.2128" y2="25.9106" gradientUnits="userSpaceOnUse">
<stop stop-color="white"/>
<stop offset="1" stop-color="#0D0D0D"/>
</linearGradient>
<linearGradient id="paint2_linear_1_2569" x1="18" y1="11.5" x2="23.5" y2="19.5" gradientUnits="userSpaceOnUse">
<stop stop-color="white"/>
<stop offset="1" stop-color="#0D0D0D"/>
</linearGradient>
</defs>
</svg>
