<svg width="30" height="30" viewBox="0 0 30 30" fill="none" xmlns="http://www.w3.org/2000/svg">
<path d="M7.6096 10.5673C7.95374 9.36852 8.09788 8.87708 8.28734 8.46972C9.13057 6.65669 10.8216 5.38286 12.7969 5.07265C13.2407 5.00295 13.7528 5 15 5C16.2472 5 16.7593 5.00295 17.2031 5.07265C19.1784 5.38286 20.8694 6.65669 21.7127 8.46972C21.9021 8.87708 22.0463 9.36852 22.3904 10.5673L23.3021 13.743C23.8897 15.7897 24.302 17.2328 24.4739 18.3491C24.6433 19.4489 24.5472 20.0512 24.2886 20.4993C24.1662 20.7114 24.0183 20.9077 23.8482 21.0839C23.4888 21.4561 22.9364 21.7147 21.8326 21.8553C20.7122 21.9981 19.2114 22 17.082 22H12.918C10.7886 22 9.28775 21.9981 8.16735 21.8553C7.06355 21.7147 6.51117 21.4561 6.15176 21.0839C5.98168 20.9077 5.83381 20.7114 5.71143 20.4993L4.84528 20.9991L5.71143 20.4993C5.45284 20.0512 5.35668 19.4489 5.52609 18.3491C5.69804 17.2328 6.11033 15.7897 6.69791 13.743L7.6096 10.5673Z" fill="white" fill-opacity="0.1" stroke="white" stroke-width="2"/>
<path d="M20 22C20 24.2091 17.7614 26 15 26C12.2386 26 10 24.2091 10 22" stroke="white" stroke-width="2"/>
</svg>
