<svg width="292" height="103" viewBox="0 0 292 103" fill="none" xmlns="http://www.w3.org/2000/svg">
<path d="M19.543 77.4278C19.543 77.4278 16.6703 74.067 13.7543 76.709L10.3338 79.8013C10.3338 79.8013 7.34451 75.5019 4.56683 75.9278C4.56683 75.9278 4.48545 75.9278 4.34711 75.9359C1.98717 76.1177 0.459992 78.4912 1.17882 80.748C1.39312 81.4153 1.76203 82.1504 2.39135 82.8665L5.15817 86.0348C5.15817 86.0348 6.44122 87.3179 6.44122 90.1579V94.1292C6.44122 96.2667 8.17455 98 10.3121 98C12.4496 98 14.1829 96.2667 14.1829 94.1292V90.006C14.1829 90.006 14.107 87.2284 15.9678 85.4299L23.4789 78.2091C23.4789 78.2091 30.9819 70.9258 39.2769 78.304" stroke="url(#paint0_linear_2011_197)" stroke-width="2" stroke-linejoin="round"/>
<path d="M19.8025 86.2653C19.8025 86.2653 20.6895 96.809 30.5904 97.262C30.5904 97.262 38.625 98.1002 41.6116 90.4345C42.1975 88.9317 42.4579 87.3205 42.4579 85.7092V79.3862C42.4579 76.9638 44.4218 75.0027 46.8414 75.0027C49.2637 75.0027 51.2249 76.9666 51.2249 79.3862V88.1939H54.4149C56.9267 88.1939 58.9639 90.231 58.9639 92.7429C58.9639 95.2547 56.9267 97.2919 54.4149 97.2919H47.3703C47.3703 97.2919 44.3485 97.0532 43.2445 95.3714" stroke="#BB0707" stroke-width="2" stroke-linejoin="round"/>
<path d="M57.2101 88.7771C57.2101 88.7771 56.0139 80.0643 63.4409 76.736C66.8344 75.2142 70.7703 75.2793 74.0227 77.0859C75.9296 78.1438 77.8393 79.9178 78.7995 82.8854C80.0256 86.6721 79.3095 90.8712 76.7949 93.9581C74.4404 96.8497 70.1356 99.3371 62.5512 96.432" stroke="url(#paint1_linear_2011_197)" stroke-width="2" stroke-linejoin="round"/>
<path d="M57.2101 88.7771C57.2101 88.7771 56.0139 80.0643 63.4409 76.736C66.8344 75.2142 70.7703 75.2793 74.0227 77.0859" stroke="url(#paint2_linear_2011_197)" stroke-width="2" stroke-linejoin="round"/>
<rect x="87.3846" y="77" width="72" height="19" rx="4" fill="url(#paint3_linear_2011_197)" fill-opacity="0.3"/>
<path d="M98.6846 84.44C99.3246 84.44 99.8446 84.6433 100.245 85.05C100.651 85.45 100.855 86.0333 100.855 86.8V90H100.165V86.88C100.165 86.2867 100.021 85.8333 99.7346 85.52C99.448 85.2067 99.058 85.05 98.5646 85.05C98.0513 85.05 97.6413 85.22 97.3346 85.56C97.028 85.9 96.8746 86.3933 96.8746 87.04V90H96.1846V86.88C96.1846 86.2867 96.0413 85.8333 95.7546 85.52C95.468 85.2067 95.0746 85.05 94.5746 85.05C94.0613 85.05 93.6513 85.22 93.3446 85.56C93.038 85.9 92.8846 86.3933 92.8846 87.04V90H92.1846V84.54H92.8846V85.48C93.058 85.14 93.3046 84.8833 93.6246 84.71C93.9446 84.53 94.3013 84.44 94.6946 84.44C95.168 84.44 95.5813 84.5533 95.9346 84.78C96.2946 85.0067 96.5546 85.34 96.7146 85.78C96.8613 85.3467 97.1113 85.0167 97.4646 84.79C97.8246 84.5567 98.2313 84.44 98.6846 84.44ZM107.349 86.99C107.349 87.23 107.343 87.4133 107.329 87.54H102.799C102.819 87.9533 102.919 88.3067 103.099 88.6C103.279 88.8933 103.516 89.1167 103.809 89.27C104.103 89.4167 104.423 89.49 104.769 89.49C105.223 89.49 105.603 89.38 105.909 89.16C106.223 88.94 106.429 88.6433 106.529 88.27H107.269C107.136 88.8033 106.849 89.24 106.409 89.58C105.976 89.9133 105.429 90.08 104.769 90.08C104.256 90.08 103.796 89.9667 103.389 89.74C102.983 89.5067 102.663 89.18 102.429 88.76C102.203 88.3333 102.089 87.8367 102.089 87.27C102.089 86.7033 102.203 86.2067 102.429 85.78C102.656 85.3533 102.973 85.0267 103.379 84.8C103.786 84.5733 104.249 84.46 104.769 84.46C105.289 84.46 105.743 84.5733 106.129 84.8C106.523 85.0267 106.823 85.3333 107.029 85.72C107.243 86.1 107.349 86.5233 107.349 86.99ZM106.639 86.97C106.646 86.5633 106.563 86.2167 106.389 85.93C106.223 85.6433 105.993 85.4267 105.699 85.28C105.406 85.1333 105.086 85.06 104.739 85.06C104.219 85.06 103.776 85.2267 103.409 85.56C103.043 85.8933 102.839 86.3633 102.799 86.97H106.639ZM115.13 84.44C115.77 84.44 116.29 84.6433 116.69 85.05C117.097 85.45 117.3 86.0333 117.3 86.8V90H116.61V86.88C116.61 86.2867 116.467 85.8333 116.18 85.52C115.893 85.2067 115.503 85.05 115.01 85.05C114.497 85.05 114.087 85.22 113.78 85.56C113.473 85.9 113.32 86.3933 113.32 87.04V90H112.63V86.88C112.63 86.2867 112.487 85.8333 112.2 85.52C111.913 85.2067 111.52 85.05 111.02 85.05C110.507 85.05 110.097 85.22 109.79 85.56C109.483 85.9 109.33 86.3933 109.33 87.04V90H108.63V84.54H109.33V85.48C109.503 85.14 109.75 84.8833 110.07 84.71C110.39 84.53 110.747 84.44 111.14 84.44C111.613 84.44 112.027 84.5533 112.38 84.78C112.74 85.0067 113 85.34 113.16 85.78C113.307 85.3467 113.557 85.0167 113.91 84.79C114.27 84.5567 114.677 84.44 115.13 84.44ZM119.545 85.75C119.725 85.37 120.001 85.06 120.375 84.82C120.755 84.58 121.201 84.46 121.715 84.46C122.215 84.46 122.661 84.5767 123.055 84.81C123.448 85.0367 123.755 85.3633 123.975 85.79C124.201 86.21 124.315 86.7 124.315 87.26C124.315 87.82 124.201 88.3133 123.975 88.74C123.755 89.1667 123.445 89.4967 123.045 89.73C122.651 89.9633 122.208 90.08 121.715 90.08C121.195 90.08 120.745 89.9633 120.365 89.73C119.991 89.49 119.718 89.18 119.545 88.8V90H118.855V82.6H119.545V85.75ZM123.605 87.26C123.605 86.8067 123.515 86.4167 123.335 86.09C123.161 85.7567 122.921 85.5033 122.615 85.33C122.308 85.1567 121.961 85.07 121.575 85.07C121.201 85.07 120.858 85.16 120.545 85.34C120.238 85.52 119.995 85.7767 119.815 86.11C119.635 86.4433 119.545 86.83 119.545 87.27C119.545 87.71 119.635 88.0967 119.815 88.43C119.995 88.7633 120.238 89.02 120.545 89.2C120.858 89.38 121.201 89.47 121.575 89.47C121.961 89.47 122.308 89.3833 122.615 89.21C122.921 89.03 123.161 88.7733 123.335 88.44C123.515 88.1 123.605 87.7067 123.605 87.26ZM130.543 86.99C130.543 87.23 130.536 87.4133 130.523 87.54H125.993C126.013 87.9533 126.113 88.3067 126.293 88.6C126.473 88.8933 126.709 89.1167 127.003 89.27C127.296 89.4167 127.616 89.49 127.963 89.49C128.416 89.49 128.796 89.38 129.103 89.16C129.416 88.94 129.623 88.6433 129.723 88.27H130.463C130.329 88.8033 130.043 89.24 129.603 89.58C129.169 89.9133 128.623 90.08 127.963 90.08C127.449 90.08 126.989 89.9667 126.583 89.74C126.176 89.5067 125.856 89.18 125.623 88.76C125.396 88.3333 125.283 87.8367 125.283 87.27C125.283 86.7033 125.396 86.2067 125.623 85.78C125.849 85.3533 126.166 85.0267 126.573 84.8C126.979 84.5733 127.443 84.46 127.963 84.46C128.483 84.46 128.936 84.5733 129.323 84.8C129.716 85.0267 130.016 85.3333 130.223 85.72C130.436 86.1 130.543 86.5233 130.543 86.99ZM129.833 86.97C129.839 86.5633 129.756 86.2167 129.583 85.93C129.416 85.6433 129.186 85.4267 128.893 85.28C128.599 85.1333 128.279 85.06 127.933 85.06C127.413 85.06 126.969 85.2267 126.603 85.56C126.236 85.8933 126.033 86.3633 125.993 86.97H129.833ZM132.523 85.51C132.677 85.17 132.91 84.9067 133.223 84.72C133.543 84.5333 133.933 84.44 134.393 84.44V85.17H134.203C133.697 85.17 133.29 85.3067 132.983 85.58C132.677 85.8533 132.523 86.31 132.523 86.95V90H131.823V84.54H132.523V85.51ZM137.326 90.08C136.7 90.08 136.186 89.9367 135.786 89.65C135.393 89.3567 135.173 88.96 135.126 88.46H135.846C135.88 88.7667 136.023 89.0167 136.276 89.21C136.536 89.3967 136.883 89.49 137.316 89.49C137.696 89.49 137.993 89.4 138.206 89.22C138.426 89.04 138.536 88.8167 138.536 88.55C138.536 88.3633 138.476 88.21 138.356 88.09C138.236 87.97 138.083 87.8767 137.896 87.81C137.716 87.7367 137.47 87.66 137.156 87.58C136.75 87.4733 136.42 87.3667 136.166 87.26C135.913 87.1533 135.696 86.9967 135.516 86.79C135.343 86.5767 135.256 86.2933 135.256 85.94C135.256 85.6733 135.336 85.4267 135.496 85.2C135.656 84.9733 135.883 84.7933 136.176 84.66C136.47 84.5267 136.803 84.46 137.176 84.46C137.763 84.46 138.236 84.61 138.596 84.91C138.956 85.2033 139.15 85.61 139.176 86.13H138.476C138.456 85.81 138.33 85.5533 138.096 85.36C137.87 85.16 137.556 85.06 137.156 85.06C136.803 85.06 136.516 85.1433 136.296 85.31C136.076 85.4767 135.966 85.6833 135.966 85.93C135.966 86.1433 136.03 86.32 136.156 86.46C136.29 86.5933 136.453 86.7 136.646 86.78C136.84 86.8533 137.1 86.9367 137.426 87.03C137.82 87.1367 138.133 87.24 138.366 87.34C138.6 87.44 138.8 87.5867 138.966 87.78C139.133 87.9733 139.22 88.23 139.226 88.55C139.226 88.8433 139.146 89.1067 138.986 89.34C138.826 89.5667 138.603 89.7467 138.316 89.88C138.03 90.0133 137.7 90.08 137.326 90.08ZM143.144 84.44C143.557 84.44 143.927 84.5267 144.254 84.7C144.587 84.8733 144.847 85.14 145.034 85.5C145.227 85.8533 145.324 86.2867 145.324 86.8V90H144.634V86.88C144.634 86.2867 144.484 85.8333 144.184 85.52C143.891 85.2067 143.487 85.05 142.974 85.05C142.447 85.05 142.027 85.2167 141.714 85.55C141.401 85.8833 141.244 86.3733 141.244 87.02V90H140.544V82.6H141.244V85.47C141.417 85.1433 141.671 84.89 142.004 84.71C142.344 84.53 142.724 84.44 143.144 84.44ZM147.222 83.51C147.082 83.51 146.962 83.46 146.862 83.36C146.762 83.26 146.712 83.1367 146.712 82.99C146.712 82.8433 146.762 82.7233 146.862 82.63C146.962 82.53 147.082 82.48 147.222 82.48C147.362 82.48 147.482 82.53 147.582 82.63C147.682 82.7233 147.732 82.8433 147.732 82.99C147.732 83.1367 147.682 83.26 147.582 83.36C147.482 83.46 147.362 83.51 147.222 83.51ZM147.572 84.54V90H146.872V84.54H147.572ZM149.847 85.74C150.021 85.3733 150.294 85.07 150.667 84.83C151.047 84.5833 151.497 84.46 152.017 84.46C152.511 84.46 152.954 84.5767 153.347 84.81C153.747 85.0367 154.057 85.3633 154.277 85.79C154.504 86.21 154.617 86.7 154.617 87.26C154.617 87.82 154.504 88.3133 154.277 88.74C154.057 89.1667 153.747 89.4967 153.347 89.73C152.954 89.9633 152.511 90.08 152.017 90.08C151.504 90.08 151.057 89.96 150.677 89.72C150.297 89.4733 150.021 89.1667 149.847 88.8V92.58H149.157V84.54H149.847V85.74ZM153.907 87.26C153.907 86.8067 153.817 86.4167 153.637 86.09C153.464 85.7567 153.224 85.5033 152.917 85.33C152.611 85.1567 152.264 85.07 151.877 85.07C151.504 85.07 151.161 85.16 150.847 85.34C150.541 85.52 150.297 85.7767 150.117 86.11C149.937 86.4433 149.847 86.83 149.847 87.27C149.847 87.71 149.937 88.0967 150.117 88.43C150.297 88.7633 150.541 89.02 150.847 89.2C151.161 89.38 151.504 89.47 151.877 89.47C152.264 89.47 152.611 89.3833 152.917 89.21C153.224 89.03 153.464 88.7733 153.637 88.44C153.817 88.1 153.907 87.7067 153.907 87.26Z" fill="white"/>
<path opacity="0.2" d="M2.268 56.264V58.712H5.148V59.828H2.268V62.384H5.508V63.5H0.9V55.148H5.508V56.264H2.268ZM10.856 59.336L13.448 63.5H11.912L10.028 60.476L8.26397 63.5H6.73997L9.33197 59.336L6.72797 55.16H8.26397L10.16 58.208L11.936 55.16H13.46L10.856 59.336ZM20.6168 57.644C20.6168 58.068 20.5168 58.468 20.3168 58.844C20.1168 59.22 19.7968 59.528 19.3568 59.768C18.9168 60 18.3528 60.116 17.6648 60.116H16.1528V63.5H14.7848V55.16H17.6648C18.3048 55.16 18.8448 55.272 19.2848 55.496C19.7328 55.712 20.0648 56.008 20.2808 56.384C20.5048 56.76 20.6168 57.18 20.6168 57.644ZM17.6648 59C18.1848 59 18.5728 58.884 18.8288 58.652C19.0848 58.412 19.2128 58.076 19.2128 57.644C19.2128 56.732 18.6968 56.276 17.6648 56.276H16.1528V59H17.6648ZM23.1246 62.396H25.9446V63.5H21.7566V55.16H23.1246V62.396ZM30.7276 63.584C29.9516 63.584 29.2356 63.404 28.5796 63.044C27.9316 62.676 27.4156 62.168 27.0316 61.52C26.6556 60.864 26.4676 60.128 26.4676 59.312C26.4676 58.496 26.6556 57.764 27.0316 57.116C27.4156 56.468 27.9316 55.964 28.5796 55.604C29.2356 55.236 29.9516 55.052 30.7276 55.052C31.5116 55.052 32.2276 55.236 32.8756 55.604C33.5316 55.964 34.0476 56.468 34.4236 57.116C34.7996 57.764 34.9876 58.496 34.9876 59.312C34.9876 60.128 34.7996 60.864 34.4236 61.52C34.0476 62.168 33.5316 62.676 32.8756 63.044C32.2276 63.404 31.5116 63.584 30.7276 63.584ZM30.7276 62.396C31.2796 62.396 31.7716 62.272 32.2036 62.024C32.6356 61.768 32.9716 61.408 33.2116 60.944C33.4596 60.472 33.5836 59.928 33.5836 59.312C33.5836 58.696 33.4596 58.156 33.2116 57.692C32.9716 57.228 32.6356 56.872 32.2036 56.624C31.7716 56.376 31.2796 56.252 30.7276 56.252C30.1756 56.252 29.6836 56.376 29.2516 56.624C28.8196 56.872 28.4796 57.228 28.2316 57.692C27.9916 58.156 27.8716 58.696 27.8716 59.312C27.8716 59.928 27.9916 60.472 28.2316 60.944C28.4796 61.408 28.8196 61.768 29.2516 62.024C29.6836 62.272 30.1756 62.396 30.7276 62.396ZM40.5007 63.5L38.5807 60.164H37.5367V63.5H36.1687V55.16H39.0487C39.6887 55.16 40.2287 55.272 40.6687 55.496C41.1167 55.72 41.4487 56.02 41.6647 56.396C41.8887 56.772 42.0007 57.192 42.0007 57.656C42.0007 58.2 41.8407 58.696 41.5207 59.144C41.2087 59.584 40.7247 59.884 40.0687 60.044L42.1327 63.5H40.5007ZM37.5367 59.072H39.0487C39.5607 59.072 39.9447 58.944 40.2007 58.688C40.4647 58.432 40.5967 58.088 40.5967 57.656C40.5967 57.224 40.4687 56.888 40.2127 56.648C39.9567 56.4 39.5687 56.276 39.0487 56.276H37.5367V59.072ZM44.9538 56.264V58.712H47.8338V59.828H44.9538V62.384H48.1938V63.5H43.5858V55.148H48.1938V56.264H44.9538Z" fill="white"/>
<g filter="url(#filter0_i_2011_197)">
<path fill-rule="evenodd" clip-rule="evenodd" d="M247.511 14.2551C253.608 20.5882 255.182 29.212 251.587 34.6534L251.918 34.5498L250.673 35.8419C250.499 36.0362 250.318 36.2248 250.129 36.4075C249.738 36.7832 249.325 37.1243 248.89 37.431C243.353 41.3217 234.419 39.5201 228.113 32.9691C221.612 26.2165 220.255 16.8598 224.822 11.5331H224.82L226.824 9.26953L226.78 9.76284C232.319 5.91092 241.223 7.72055 247.511 14.2551Z" fill="#A37C1A"/>
</g>
<g filter="url(#filter1_i_2011_197)">
<path d="M230.356 30.5979C223.532 23.5094 222.122 13.7866 227.207 8.88154C232.292 3.97645 241.946 5.74648 248.769 12.835C255.593 19.9235 257.003 29.6463 251.918 34.5514C246.834 39.4564 237.18 37.6864 230.356 30.5979Z" fill="url(#paint4_linear_2011_197)"/>
</g>
<g opacity="0.6" clip-path="url(#clip0_2011_197)" filter="url(#filter2_i_2011_197)">
<path d="M236.192 20.7141C236.246 20.6592 236.284 20.6556 236.345 20.7032C236.524 20.8404 236.708 20.9685 236.889 21.1003C237.743 21.7226 238.598 22.3448 239.452 22.9671C239.476 22.9835 239.503 22.9945 239.555 23.022C239.418 22.7145 239.295 22.44 239.171 22.1655C238.721 21.1735 238.271 20.1834 237.821 19.1933C237.798 19.142 237.803 19.1109 237.843 19.0707C238.202 18.7119 238.56 18.3514 238.92 17.9927C239.069 17.8426 239.223 17.6944 239.386 17.5352C239.407 17.5791 239.425 17.6102 239.438 17.6431C239.881 18.7595 240.323 19.8759 240.766 20.9923C241.203 22.0959 241.637 23.1995 242.076 24.3013C242.09 24.3397 242.119 24.3873 242.151 24.3983C242.305 24.4495 242.459 24.5081 242.618 24.5282C242.941 24.5703 243.201 24.4092 243.443 24.2134C243.535 24.1384 243.622 24.0579 243.723 23.9682C243.813 24.0707 243.893 24.164 243.974 24.2573C244.346 24.6893 244.717 25.1212 245.091 25.5513C245.138 25.6062 245.141 25.6409 245.089 25.6958C244.854 25.9393 244.601 26.1607 244.316 26.3419C243.777 26.6841 243.194 26.8251 242.56 26.7445C241.915 26.664 241.329 26.4096 240.784 26.0674C238.896 24.8851 237.015 23.6918 235.131 22.5004C234.989 22.4107 234.848 22.3174 234.698 22.2222C234.804 22.1124 234.898 22.0136 234.996 21.9166C235.395 21.5158 235.796 21.1168 236.193 20.7141H236.192Z" fill="#96731A"/>
<path d="M236.939 18.954C236.823 18.9302 236.704 18.9174 236.594 18.879C236.086 18.7014 235.75 18.1469 235.799 17.5814C235.848 17.0159 236.317 16.6663 236.865 16.7907C237.455 16.9244 237.88 17.5795 237.775 18.1927C237.697 18.652 237.378 18.9375 236.937 18.954H236.939Z" fill="#96731A"/>
<path d="M234.151 19.1129C234.252 18.6443 234.675 18.3607 235.139 18.4485C235.731 18.5602 236.176 19.1605 236.118 19.7699C236.071 20.2714 235.739 20.6008 235.282 20.6063C235.22 20.6008 235.159 20.6008 235.099 20.5898C234.454 20.4708 234.006 19.7754 234.149 19.1129H234.151Z" fill="#96731A"/>
</g>
<g opacity="0.4" filter="url(#filter3_i_2011_197)">
<path d="M232.551 28.4793C227.354 23.0814 226.281 15.6777 230.152 11.9426C234.024 8.20765 241.375 9.55573 246.572 14.9537C251.768 20.3516 252.842 27.7554 248.97 31.4904C245.098 35.2254 237.747 33.8773 232.551 28.4793Z" stroke="#826523" stroke-miterlimit="10"/>
</g>
<g clip-path="url(#clip1_2011_197)">
<g filter="url(#filter4_i_2011_197)">
<path fill-rule="evenodd" clip-rule="evenodd" d="M243.314 54.6376C231.617 66.788 228.598 83.3334 235.497 93.7723L234.857 93.5723L237.295 96.1016C237.609 96.4514 237.937 96.7917 238.279 97.1219L238.292 97.1352L238.292 97.1348L238.293 97.1351C239.042 97.8558 239.835 98.5102 240.669 99.0985C251.291 106.563 268.43 103.106 280.529 90.5387C292.999 77.585 295.602 59.6358 286.843 49.4166H286.846L286.752 49.3112C286.672 49.2193 286.592 49.128 286.51 49.0374L283 45.0742L283.085 46.0191C272.458 38.6299 255.378 42.1017 243.314 54.6376Z" fill="#A37C1A"/>
</g>
<g filter="url(#filter5_i_2011_197)">
<path d="M276.225 85.9891C289.316 72.3903 292.021 53.738 282.266 44.328C272.511 34.918 253.992 38.3136 240.901 51.9124C227.81 65.5112 225.105 84.1635 234.859 93.5735C244.614 102.984 263.134 99.5878 276.225 85.9891Z" fill="url(#paint5_linear_2011_197)"/>
</g>
<mask id="mask0_2011_197" style="mask-type:alpha" maskUnits="userSpaceOnUse" x="229" y="39" width="60" height="60">
<path d="M276.225 85.9891C289.316 72.3903 292.021 53.738 282.266 44.328C272.511 34.918 253.992 38.3136 240.901 51.9124C227.81 65.5112 225.105 84.1635 234.859 93.5735C244.614 102.984 263.134 99.5878 276.225 85.9891Z" fill="url(#paint6_linear_2011_197)"/>
</mask>
<g mask="url(#mask0_2011_197)">
<path d="M284.62 17.087L209.805 65.4884L218.271 77.7078L295.035 29.7566L284.62 17.087Z" fill="url(#paint7_linear_2011_197)" fill-opacity="0.4"/>
<path d="M293.62 64.087L218.805 112.488L227.271 124.708L304.035 76.7566L293.62 64.087Z" fill="url(#paint8_linear_2011_197)" fill-opacity="0.4"/>
<path d="M291.78 56.8419L216.965 105.243L220 110L257.5 86.0002L295 62.0002L291.78 56.8419Z" fill="url(#paint9_linear_2011_197)" fill-opacity="0.4"/>
</g>
<g opacity="0.6" clip-path="url(#clip2_2011_197)" filter="url(#filter6_i_2011_197)">
<path d="M265.055 66.504C264.951 66.3997 264.879 66.3928 264.761 66.4832C264.42 66.744 264.068 66.9874 263.723 67.2378C262.092 68.42 260.461 69.6023 258.829 70.7846C258.785 70.8159 258.733 70.8368 258.633 70.8889C258.895 70.3047 259.129 69.7831 259.367 69.2615C260.226 67.3768 261.085 65.4956 261.944 63.6144C261.988 63.517 261.978 63.4579 261.902 63.3814C261.216 62.6999 260.533 62.0148 259.847 61.3333C259.56 61.0481 259.267 60.7665 258.957 60.464C258.916 60.5474 258.881 60.6065 258.857 60.6691C258.012 62.7903 257.167 64.9114 256.322 67.0326C255.487 69.1294 254.66 71.2262 253.822 73.3196C253.794 73.3926 253.739 73.483 253.677 73.5039C253.384 73.6012 253.09 73.7125 252.787 73.7507C252.17 73.8307 251.673 73.5247 251.211 73.1526C251.035 73.0101 250.869 72.8571 250.676 72.6867C250.504 72.8814 250.352 73.0588 250.197 73.2361C249.486 74.0567 248.779 74.8774 248.066 75.6946C247.976 75.7989 247.969 75.8649 248.069 75.9693C248.517 76.4317 249 76.8525 249.545 77.1968C250.573 77.847 251.687 78.1148 252.897 77.9618C254.129 77.8088 255.246 77.3254 256.288 76.6752C259.892 74.4288 263.482 72.1616 267.079 69.8979C267.351 69.7275 267.62 69.5502 267.907 69.3693C267.703 69.1607 267.524 68.9729 267.338 68.7886C266.575 68.0271 265.81 67.269 265.051 66.504H265.055Z" fill="#96731A"/>
<path d="M263.631 63.1589C263.852 63.1137 264.079 63.0893 264.29 63.0163C265.259 62.679 265.9 61.6254 265.807 60.5509C265.714 59.4764 264.818 58.8123 263.773 59.0487C262.645 59.3026 261.834 60.5474 262.034 61.7123C262.183 62.5851 262.793 63.1276 263.635 63.1589H263.631Z" fill="#96731A"/>
<path d="M268.953 63.4614C268.76 62.5712 267.953 62.0322 267.066 62.1992C265.935 62.4113 265.087 63.5518 265.197 64.7098C265.287 65.6626 265.921 66.2885 266.794 66.2989C266.911 66.2885 267.028 66.2885 267.142 66.2676C268.374 66.0416 269.229 64.7202 268.956 63.4614H268.953Z" fill="#96731A"/>
</g>
<g opacity="0.4" filter="url(#filter7_i_2011_197)">
<path d="M272.011 81.925C281.979 71.5695 284.04 57.3661 276.612 50.2007C269.184 43.0354 255.082 45.6216 245.113 55.9772C235.144 66.3327 233.084 80.5362 240.511 87.7015C247.939 94.8668 262.042 92.2806 272.011 81.925Z" stroke="#826523" stroke-width="2" stroke-miterlimit="10"/>
</g>
</g>
<mask id="mask1_2011_197" style="mask-type:alpha" maskUnits="userSpaceOnUse" x="224" y="6" width="31" height="32">
<path d="M230.356 30.5979C223.532 23.5094 222.122 13.7866 227.207 8.88154C232.292 3.97645 241.946 5.74648 248.769 12.835C255.593 19.9235 257.003 29.6463 251.918 34.5514C246.834 39.4564 237.18 37.6864 230.356 30.5979Z" fill="url(#paint10_linear_2011_197)"/>
</mask>
<g mask="url(#mask1_2011_197)">
<path d="M235.056 4.69113L264.07 35.0484L268.979 30.0498L240.001 -1.24936L235.056 4.69113Z" fill="url(#paint11_linear_2011_197)" fill-opacity="0.4"/>
<path d="M230.828 5.2214L259.842 35.5787L261.775 33.7537L232.931 3.2754L230.828 5.2214Z" fill="url(#paint12_linear_2011_197)" fill-opacity="0.4"/>
</g>
<defs>
<filter id="filter0_i_2011_197" x="208.135" y="6.75879" width="45.3553" height="32.706" filterUnits="userSpaceOnUse" color-interpolation-filters="sRGB">
<feFlood flood-opacity="0" result="BackgroundImageFix"/>
<feBlend mode="normal" in="SourceGraphic" in2="BackgroundImageFix" result="shape"/>
<feColorMatrix in="SourceAlpha" type="matrix" values="0 0 0 0 0 0 0 0 0 0 0 0 0 0 0 0 0 0 127 0" result="hardAlpha"/>
<feOffset dx="-14" dy="-1"/>
<feGaussianBlur stdDeviation="9.5"/>
<feComposite in2="hardAlpha" operator="arithmetic" k2="-1" k3="1"/>
<feColorMatrix type="matrix" values="0 0 0 0 0.433333 0 0 0 0 0.0379167 0 0 0 0 0.0379167 0 0 0 0.7 0"/>
<feBlend mode="normal" in2="shape" result="effect1_innerShadow_2011_197"/>
</filter>
<filter id="filter1_i_2011_197" x="224.153" y="6.10687" width="35.819" height="35.2191" filterUnits="userSpaceOnUse" color-interpolation-filters="sRGB">
<feFlood flood-opacity="0" result="BackgroundImageFix"/>
<feBlend mode="normal" in="SourceGraphic" in2="BackgroundImageFix" result="shape"/>
<feColorMatrix in="SourceAlpha" type="matrix" values="0 0 0 0 0 0 0 0 0 0 0 0 0 0 0 0 0 0 127 0" result="hardAlpha"/>
<feOffset dx="5" dy="4"/>
<feGaussianBlur stdDeviation="3.5"/>
<feComposite in2="hardAlpha" operator="arithmetic" k2="-1" k3="1"/>
<feColorMatrix type="matrix" values="0 0 0 0 1 0 0 0 0 1 0 0 0 0 1 0 0 0 0.4 0"/>
<feBlend mode="normal" in2="shape" result="effect1_innerShadow_2011_197"/>
</filter>
<filter id="filter2_i_2011_197" x="234.125" y="16.7646" width="12" height="11" filterUnits="userSpaceOnUse" color-interpolation-filters="sRGB">
<feFlood flood-opacity="0" result="BackgroundImageFix"/>
<feBlend mode="normal" in="SourceGraphic" in2="BackgroundImageFix" result="shape"/>
<feColorMatrix in="SourceAlpha" type="matrix" values="0 0 0 0 0 0 0 0 0 0 0 0 0 0 0 0 0 0 127 0" result="hardAlpha"/>
<feOffset dx="1" dy="1"/>
<feGaussianBlur stdDeviation="1"/>
<feComposite in2="hardAlpha" operator="arithmetic" k2="-1" k3="1"/>
<feColorMatrix type="matrix" values="0 0 0 0 0 0 0 0 0 0 0 0 0 0 0 0 0 0 0.5 0"/>
<feBlend mode="normal" in2="shape" result="effect1_innerShadow_2011_197"/>
</filter>
<filter id="filter3_i_2011_197" x="227.328" y="9.32999" width="25.4673" height="25.773" filterUnits="userSpaceOnUse" color-interpolation-filters="sRGB">
<feFlood flood-opacity="0" result="BackgroundImageFix"/>
<feBlend mode="normal" in="SourceGraphic" in2="BackgroundImageFix" result="shape"/>
<feColorMatrix in="SourceAlpha" type="matrix" values="0 0 0 0 0 0 0 0 0 0 0 0 0 0 0 0 0 0 127 0" result="hardAlpha"/>
<feOffset dx="1" dy="1"/>
<feGaussianBlur stdDeviation="0.5"/>
<feComposite in2="hardAlpha" operator="arithmetic" k2="-1" k3="1"/>
<feColorMatrix type="matrix" values="0 0 0 0 0 0 0 0 0 0 0 0 0 0 0 0 0 0 0.2 0"/>
<feBlend mode="normal" in2="shape" result="effect1_innerShadow_2011_197"/>
</filter>
<filter id="filter4_i_2011_197" x="231.844" y="38.1748" width="80.1527" height="64.8255" filterUnits="userSpaceOnUse" color-interpolation-filters="sRGB">
<feFlood flood-opacity="0" result="BackgroundImageFix"/>
<feBlend mode="normal" in="SourceGraphic" in2="BackgroundImageFix" result="shape"/>
<feColorMatrix in="SourceAlpha" type="matrix" values="0 0 0 0 0 0 0 0 0 0 0 0 0 0 0 0 0 0 127 0" result="hardAlpha"/>
<feOffset dx="25" dy="-4"/>
<feGaussianBlur stdDeviation="10"/>
<feComposite in2="hardAlpha" operator="arithmetic" k2="-1" k3="1"/>
<feColorMatrix type="matrix" values="0 0 0 0 0.433333 0 0 0 0 0.0379167 0 0 0 0 0.0379167 0 0 0 0.7 0"/>
<feBlend mode="normal" in2="shape" result="effect1_innerShadow_2011_197"/>
</filter>
<filter id="filter5_i_2011_197" x="229.001" y="39.005" width="63.1238" height="63.8915" filterUnits="userSpaceOnUse" color-interpolation-filters="sRGB">
<feFlood flood-opacity="0" result="BackgroundImageFix"/>
<feBlend mode="normal" in="SourceGraphic" in2="BackgroundImageFix" result="shape"/>
<feColorMatrix in="SourceAlpha" type="matrix" values="0 0 0 0 0 0 0 0 0 0 0 0 0 0 0 0 0 0 127 0" result="hardAlpha"/>
<feOffset dx="4" dy="4"/>
<feGaussianBlur stdDeviation="7"/>
<feComposite in2="hardAlpha" operator="arithmetic" k2="-1" k3="1"/>
<feColorMatrix type="matrix" values="0 0 0 0 1 0 0 0 0 1 0 0 0 0 1 0 0 0 0.25 0"/>
<feBlend mode="normal" in2="shape" result="effect1_innerShadow_2011_197"/>
</filter>
<filter id="filter6_i_2011_197" x="248" y="59" width="22" height="20" filterUnits="userSpaceOnUse" color-interpolation-filters="sRGB">
<feFlood flood-opacity="0" result="BackgroundImageFix"/>
<feBlend mode="normal" in="SourceGraphic" in2="BackgroundImageFix" result="shape"/>
<feColorMatrix in="SourceAlpha" type="matrix" values="0 0 0 0 0 0 0 0 0 0 0 0 0 0 0 0 0 0 127 0" result="hardAlpha"/>
<feOffset dx="1" dy="1"/>
<feGaussianBlur stdDeviation="1"/>
<feComposite in2="hardAlpha" operator="arithmetic" k2="-1" k3="1"/>
<feColorMatrix type="matrix" values="0 0 0 0 0 0 0 0 0 0 0 0 0 0 0 0 0 0 0.5 0"/>
<feBlend mode="normal" in2="shape" result="effect1_innerShadow_2011_197"/>
</filter>
<filter id="filter7_i_2011_197" x="235.052" y="45.1478" width="48.0201" height="48.6067" filterUnits="userSpaceOnUse" color-interpolation-filters="sRGB">
<feFlood flood-opacity="0" result="BackgroundImageFix"/>
<feBlend mode="normal" in="SourceGraphic" in2="BackgroundImageFix" result="shape"/>
<feColorMatrix in="SourceAlpha" type="matrix" values="0 0 0 0 0 0 0 0 0 0 0 0 0 0 0 0 0 0 127 0" result="hardAlpha"/>
<feOffset dx="1" dy="1"/>
<feGaussianBlur stdDeviation="0.5"/>
<feComposite in2="hardAlpha" operator="arithmetic" k2="-1" k3="1"/>
<feColorMatrix type="matrix" values="0 0 0 0 0 0 0 0 0 0 0 0 0 0 0 0 0 0 0.2 0"/>
<feBlend mode="normal" in2="shape" result="effect1_innerShadow_2011_197"/>
</filter>
<linearGradient id="paint0_linear_2011_197" x1="1.01312" y1="98" x2="39.2239" y2="98" gradientUnits="userSpaceOnUse">
<stop stop-color="#BB0707"/>
<stop offset="1" stop-color="#BB0707" stop-opacity="0"/>
</linearGradient>
<linearGradient id="paint1_linear_2011_197" x1="78.2149" y1="91.2196" x2="62.0338" y2="97.6531" gradientUnits="userSpaceOnUse">
<stop stop-color="#BB0707"/>
<stop offset="1" stop-color="#BB0707" stop-opacity="0"/>
</linearGradient>
<linearGradient id="paint2_linear_2011_197" x1="57.1449" y1="88.7771" x2="73.9993" y2="88.7771" gradientUnits="userSpaceOnUse">
<stop stop-color="#BB0707"/>
<stop offset="1" stop-color="#BB0707" stop-opacity="0"/>
</linearGradient>
<linearGradient id="paint3_linear_2011_197" x1="87.3846" y1="89" x2="159.385" y2="89" gradientUnits="userSpaceOnUse">
<stop stop-color="#A90808"/>
<stop offset="1" stop-color="#C49A31" stop-opacity="0"/>
</linearGradient>
<linearGradient id="paint4_linear_2011_197" x1="248.769" y1="12.835" x2="225.971" y2="34.7824" gradientUnits="userSpaceOnUse">
<stop stop-color="#C9B379"/>
<stop offset="1" stop-color="#C99A1E"/>
</linearGradient>
<linearGradient id="paint5_linear_2011_197" x1="240.901" y1="51.9124" x2="284.638" y2="94.0167" gradientUnits="userSpaceOnUse">
<stop stop-color="#C9B379"/>
<stop offset="1" stop-color="#C99A1E"/>
</linearGradient>
<linearGradient id="paint6_linear_2011_197" x1="240.901" y1="51.9124" x2="284.638" y2="94.0167" gradientUnits="userSpaceOnUse">
<stop stop-color="#C9B379"/>
<stop offset="1" stop-color="#C99A1E"/>
</linearGradient>
<linearGradient id="paint7_linear_2011_197" x1="282" y1="38.9998" x2="228.5" y2="74.9998" gradientUnits="userSpaceOnUse">
<stop stop-color="white"/>
<stop offset="1" stop-color="white" stop-opacity="0"/>
</linearGradient>
<linearGradient id="paint8_linear_2011_197" x1="291" y1="85.9998" x2="237.5" y2="122" gradientUnits="userSpaceOnUse">
<stop stop-color="white"/>
<stop offset="1" stop-color="white" stop-opacity="0"/>
</linearGradient>
<linearGradient id="paint9_linear_2011_197" x1="282.286" y1="75.3261" x2="233.432" y2="106.868" gradientUnits="userSpaceOnUse">
<stop stop-color="white"/>
<stop offset="1" stop-color="white" stop-opacity="0"/>
</linearGradient>
<linearGradient id="paint10_linear_2011_197" x1="248.769" y1="12.835" x2="225.971" y2="34.7824" gradientUnits="userSpaceOnUse">
<stop stop-color="#C9B379"/>
<stop offset="1" stop-color="#C99A1E"/>
</linearGradient>
<linearGradient id="paint11_linear_2011_197" x1="245.431" y1="3.96805" x2="266.822" y2="25.5538" gradientUnits="userSpaceOnUse">
<stop stop-color="#F5F5F5"/>
<stop offset="1" stop-color="white" stop-opacity="0"/>
</linearGradient>
<linearGradient id="paint12_linear_2011_197" x1="240.223" y1="7.98342" x2="259.139" y2="27.8124" gradientUnits="userSpaceOnUse">
<stop stop-color="#F5F5F5"/>
<stop offset="1" stop-color="white" stop-opacity="0"/>
</linearGradient>
<clipPath id="clip0_2011_197">
<rect width="11" height="10" fill="white" transform="matrix(-1 0 0 1 245.125 16.7646)"/>
</clipPath>
<clipPath id="clip1_2011_197">
<rect width="63" height="64" fill="white" transform="translate(229 39)"/>
</clipPath>
<clipPath id="clip2_2011_197">
<rect width="21" height="19" fill="white" transform="translate(248 59)"/>
</clipPath>
</defs>
</svg>
