<svg width="60" height="19" viewBox="0 0 60 19" fill="none" xmlns="http://www.w3.org/2000/svg">
<path d="M14.7057 2.79449C14.7057 2.79449 12.5824 0.310359 10.4271 2.26318L7.89887 4.54882C7.89887 4.54882 5.68942 1.37098 3.63635 1.68575C3.63635 1.68575 3.5762 1.68575 3.47395 1.69177C1.72965 1.8261 0.600864 3.58043 1.13217 5.24854C1.29057 5.74176 1.56324 6.2851 2.02839 6.8144L4.07343 9.15618C4.07343 9.15618 5.02177 10.1045 5.02177 12.2037V15.1389C5.02177 16.7188 6.30293 18 7.88283 18C9.46272 18 10.7439 16.7188 10.7439 15.1389V12.0914C10.7439 12.0914 10.6877 10.0384 12.0631 8.70908L17.6148 3.37191C17.6148 3.37191 23.1605 -2.01137 29.2916 3.44208" stroke="url(#paint0_linear_1_423)" stroke-width="2" stroke-linejoin="round"/>
<path d="M14.8979 9.32661C14.8979 9.32661 15.5535 17.1198 22.8716 17.4547C22.8716 17.4547 28.8102 18.0742 31.0177 12.4082C31.4507 11.2975 31.6432 10.1065 31.6432 8.9156V4.24207C31.6432 2.45165 33.0948 1.00208 34.8832 1.00208C36.6736 1.00208 38.1232 2.45366 38.1232 4.24207V10.7521H40.481C42.3376 10.7521 43.8433 12.2578 43.8433 14.1144C43.8433 15.971 42.3376 17.4767 40.481 17.4767H35.2742C35.2742 17.4767 33.0406 17.3003 32.2246 16.0572" stroke="#BB0707" stroke-width="2" stroke-linejoin="round"/>
<path d="M42.5463 11.1831C42.5463 11.1831 41.6621 4.74325 47.1517 2.28319C49.6599 1.15841 52.5691 1.20653 54.973 2.54182C56.3825 3.32375 57.7939 4.63499 58.5037 6.8284C59.4099 9.6273 58.8806 12.731 57.022 15.0126C55.2817 17.1499 52.0999 18.9884 46.4941 16.8411" stroke="url(#paint1_linear_1_423)" stroke-width="2" stroke-linejoin="round"/>
<path d="M42.5463 11.1831C42.5463 11.1831 41.6621 4.74326 47.1517 2.28319C49.6599 1.15841 52.5691 1.20653 54.973 2.54182" stroke="url(#paint2_linear_1_423)" stroke-width="2" stroke-linejoin="round"/>
<defs>
<linearGradient id="paint0_linear_1_423" x1="1.0097" y1="18" x2="29.2525" y2="18" gradientUnits="userSpaceOnUse">
<stop stop-color="#BB0707"/>
<stop offset="1" stop-color="#BB0707" stop-opacity="0"/>
</linearGradient>
<linearGradient id="paint1_linear_1_423" x1="58.0716" y1="12.9885" x2="46.1116" y2="17.7436" gradientUnits="userSpaceOnUse">
<stop stop-color="#BB0707"/>
<stop offset="1" stop-color="#BB0707" stop-opacity="0"/>
</linearGradient>
<linearGradient id="paint2_linear_1_423" x1="42.4981" y1="11.1831" x2="54.9557" y2="11.1831" gradientUnits="userSpaceOnUse">
<stop stop-color="#BB0707"/>
<stop offset="1" stop-color="#BB0707" stop-opacity="0"/>
</linearGradient>
</defs>
</svg>
