<svg width="51" height="51" viewBox="0 0 51 51" fill="none" xmlns="http://www.w3.org/2000/svg">
<circle opacity="0.1" cx="25.5" cy="25.5" r="25" stroke="url(#paint0_linear_2001_190)"/>
<g opacity="0.3">
<mask id="path-2-inside-1_2001_190" fill="white">
<path d="M21 34H17C16.7348 34 16.4804 33.8946 16.2929 33.7071C16.1054 33.5196 16 33.2652 16 33V29C16 28.7348 15.8946 28.4804 15.7071 28.2929C15.5196 28.1054 15.2652 28 15 28C14.7348 28 14.4804 28.1054 14.2929 28.2929C14.1054 28.4804 14 28.7348 14 29V33C14 33.7956 14.3161 34.5587 14.8787 35.1213C15.4413 35.6839 16.2044 36 17 36H21C21.2652 36 21.5196 35.8946 21.7071 35.7071C21.8946 35.5196 22 35.2652 22 35C22 34.7348 21.8946 34.4804 21.7071 34.2929C21.5196 34.1054 21.2652 34 21 34ZM35 28C34.7348 28 34.4804 28.1054 34.2929 28.2929C34.1054 28.4804 34 28.7348 34 29V33C34 33.2652 33.8946 33.5196 33.7071 33.7071C33.5196 33.8946 33.2652 34 33 34H29C28.7348 34 28.4804 34.1054 28.2929 34.2929C28.1054 34.4804 28 34.7348 28 35C28 35.2652 28.1054 35.5196 28.2929 35.7071C28.4804 35.8946 28.7348 36 29 36H33C33.7956 36 34.5587 35.6839 35.1213 35.1213C35.6839 34.5587 36 33.7956 36 33V29C36 28.7348 35.8946 28.4804 35.7071 28.2929C35.5196 28.1054 35.2652 28 35 28ZM33 14H29C28.7348 14 28.4804 14.1054 28.2929 14.2929C28.1054 14.4804 28 14.7348 28 15C28 15.2652 28.1054 15.5196 28.2929 15.7071C28.4804 15.8946 28.7348 16 29 16H33C33.2652 16 33.5196 16.1054 33.7071 16.2929C33.8946 16.4804 34 16.7348 34 17V21C34 21.2652 34.1054 21.5196 34.2929 21.7071C34.4804 21.8946 34.7348 22 35 22C35.2652 22 35.5196 21.8946 35.7071 21.7071C35.8946 21.5196 36 21.2652 36 21V17C36 16.2044 35.6839 15.4413 35.1213 14.8787C34.5587 14.3161 33.7956 14 33 14ZM15 22C15.2652 22 15.5196 21.8946 15.7071 21.7071C15.8946 21.5196 16 21.2652 16 21V17C16 16.7348 16.1054 16.4804 16.2929 16.2929C16.4804 16.1054 16.7348 16 17 16H21C21.2652 16 21.5196 15.8946 21.7071 15.7071C21.8946 15.5196 22 15.2652 22 15C22 14.7348 21.8946 14.4804 21.7071 14.2929C21.5196 14.1054 21.2652 14 21 14H17C16.2044 14 15.4413 14.3161 14.8787 14.8787C14.3161 15.4413 14 16.2044 14 17V21C14 21.2652 14.1054 21.5196 14.2929 21.7071C14.4804 21.8946 14.7348 22 15 22ZM23 18H19C18.7348 18 18.4804 18.1054 18.2929 18.2929C18.1054 18.4804 18 18.7348 18 19V23C18 23.2652 18.1054 23.5196 18.2929 23.7071C18.4804 23.8946 18.7348 24 19 24H23C23.2652 24 23.5196 23.8946 23.7071 23.7071C23.8946 23.5196 24 23.2652 24 23V19C24 18.7348 23.8946 18.4804 23.7071 18.2929C23.5196 18.1054 23.2652 18 23 18ZM22 22H20V20H22V22ZM27 24H31C31.2652 24 31.5196 23.8946 31.7071 23.7071C31.8946 23.5196 32 23.2652 32 23V19C32 18.7348 31.8946 18.4804 31.7071 18.2929C31.5196 18.1054 31.2652 18 31 18H27C26.7348 18 26.4804 18.1054 26.2929 18.2929C26.1054 18.4804 26 18.7348 26 19V23C26 23.2652 26.1054 23.5196 26.2929 23.7071C26.4804 23.8946 26.7348 24 27 24ZM28 20H30V22H28V20ZM23 26H19C18.7348 26 18.4804 26.1054 18.2929 26.2929C18.1054 26.4804 18 26.7348 18 27V31C18 31.2652 18.1054 31.5196 18.2929 31.7071C18.4804 31.8946 18.7348 32 19 32H23C23.2652 32 23.5196 31.8946 23.7071 31.7071C23.8946 31.5196 24 31.2652 24 31V27C24 26.7348 23.8946 26.4804 23.7071 26.2929C23.5196 26.1054 23.2652 26 23 26ZM22 30H20V28H22V30ZM27 29C27.2652 29 27.5196 28.8946 27.7071 28.7071C27.8946 28.5196 28 28.2652 28 28C28.2652 28 28.5196 27.8946 28.7071 27.7071C28.8946 27.5196 29 27.2652 29 27C29 26.7348 28.8946 26.4804 28.7071 26.2929C28.5196 26.1054 28.2652 26 28 26H27C26.7348 26 26.4804 26.1054 26.2929 26.2929C26.1054 26.4804 26 26.7348 26 27V28C26 28.2652 26.1054 28.5196 26.2929 28.7071C26.4804 28.8946 26.7348 29 27 29ZM31 26C30.7348 26 30.4804 26.1054 30.2929 26.2929C30.1054 26.4804 30 26.7348 30 27V30C29.7348 30 29.4804 30.1054 29.2929 30.2929C29.1054 30.4804 29 30.7348 29 31C29 31.2652 29.1054 31.5196 29.2929 31.7071C29.4804 31.8946 29.7348 32 30 32H31C31.2652 32 31.5196 31.8946 31.7071 31.7071C31.8946 31.5196 32 31.2652 32 31V27C32 26.7348 31.8946 26.4804 31.7071 26.2929C31.5196 26.1054 31.2652 26 31 26ZM27 30C26.8022 30 26.6089 30.0586 26.4444 30.1685C26.28 30.2784 26.1518 30.4346 26.0761 30.6173C26.0004 30.8 25.9806 31.0011 26.0192 31.1951C26.0578 31.3891 26.153 31.5673 26.2929 31.7071C26.4327 31.847 26.6109 31.9422 26.8049 31.9808C26.9989 32.0194 27.2 31.9996 27.3827 31.9239C27.5654 31.8482 27.7216 31.72 27.8315 31.5556C27.9414 31.3911 28 31.1978 28 31C28 30.7348 27.8946 30.4804 27.7071 30.2929C27.5196 30.1054 27.2652 30 27 30Z"/>
</mask>
<path d="M21 34H17C16.7348 34 16.4804 33.8946 16.2929 33.7071C16.1054 33.5196 16 33.2652 16 33V29C16 28.7348 15.8946 28.4804 15.7071 28.2929C15.5196 28.1054 15.2652 28 15 28C14.7348 28 14.4804 28.1054 14.2929 28.2929C14.1054 28.4804 14 28.7348 14 29V33C14 33.7956 14.3161 34.5587 14.8787 35.1213C15.4413 35.6839 16.2044 36 17 36H21C21.2652 36 21.5196 35.8946 21.7071 35.7071C21.8946 35.5196 22 35.2652 22 35C22 34.7348 21.8946 34.4804 21.7071 34.2929C21.5196 34.1054 21.2652 34 21 34ZM35 28C34.7348 28 34.4804 28.1054 34.2929 28.2929C34.1054 28.4804 34 28.7348 34 29V33C34 33.2652 33.8946 33.5196 33.7071 33.7071C33.5196 33.8946 33.2652 34 33 34H29C28.7348 34 28.4804 34.1054 28.2929 34.2929C28.1054 34.4804 28 34.7348 28 35C28 35.2652 28.1054 35.5196 28.2929 35.7071C28.4804 35.8946 28.7348 36 29 36H33C33.7956 36 34.5587 35.6839 35.1213 35.1213C35.6839 34.5587 36 33.7956 36 33V29C36 28.7348 35.8946 28.4804 35.7071 28.2929C35.5196 28.1054 35.2652 28 35 28ZM33 14H29C28.7348 14 28.4804 14.1054 28.2929 14.2929C28.1054 14.4804 28 14.7348 28 15C28 15.2652 28.1054 15.5196 28.2929 15.7071C28.4804 15.8946 28.7348 16 29 16H33C33.2652 16 33.5196 16.1054 33.7071 16.2929C33.8946 16.4804 34 16.7348 34 17V21C34 21.2652 34.1054 21.5196 34.2929 21.7071C34.4804 21.8946 34.7348 22 35 22C35.2652 22 35.5196 21.8946 35.7071 21.7071C35.8946 21.5196 36 21.2652 36 21V17C36 16.2044 35.6839 15.4413 35.1213 14.8787C34.5587 14.3161 33.7956 14 33 14ZM15 22C15.2652 22 15.5196 21.8946 15.7071 21.7071C15.8946 21.5196 16 21.2652 16 21V17C16 16.7348 16.1054 16.4804 16.2929 16.2929C16.4804 16.1054 16.7348 16 17 16H21C21.2652 16 21.5196 15.8946 21.7071 15.7071C21.8946 15.5196 22 15.2652 22 15C22 14.7348 21.8946 14.4804 21.7071 14.2929C21.5196 14.1054 21.2652 14 21 14H17C16.2044 14 15.4413 14.3161 14.8787 14.8787C14.3161 15.4413 14 16.2044 14 17V21C14 21.2652 14.1054 21.5196 14.2929 21.7071C14.4804 21.8946 14.7348 22 15 22ZM23 18H19C18.7348 18 18.4804 18.1054 18.2929 18.2929C18.1054 18.4804 18 18.7348 18 19V23C18 23.2652 18.1054 23.5196 18.2929 23.7071C18.4804 23.8946 18.7348 24 19 24H23C23.2652 24 23.5196 23.8946 23.7071 23.7071C23.8946 23.5196 24 23.2652 24 23V19C24 18.7348 23.8946 18.4804 23.7071 18.2929C23.5196 18.1054 23.2652 18 23 18ZM22 22H20V20H22V22ZM27 24H31C31.2652 24 31.5196 23.8946 31.7071 23.7071C31.8946 23.5196 32 23.2652 32 23V19C32 18.7348 31.8946 18.4804 31.7071 18.2929C31.5196 18.1054 31.2652 18 31 18H27C26.7348 18 26.4804 18.1054 26.2929 18.2929C26.1054 18.4804 26 18.7348 26 19V23C26 23.2652 26.1054 23.5196 26.2929 23.7071C26.4804 23.8946 26.7348 24 27 24ZM28 20H30V22H28V20ZM23 26H19C18.7348 26 18.4804 26.1054 18.2929 26.2929C18.1054 26.4804 18 26.7348 18 27V31C18 31.2652 18.1054 31.5196 18.2929 31.7071C18.4804 31.8946 18.7348 32 19 32H23C23.2652 32 23.5196 31.8946 23.7071 31.7071C23.8946 31.5196 24 31.2652 24 31V27C24 26.7348 23.8946 26.4804 23.7071 26.2929C23.5196 26.1054 23.2652 26 23 26ZM22 30H20V28H22V30ZM27 29C27.2652 29 27.5196 28.8946 27.7071 28.7071C27.8946 28.5196 28 28.2652 28 28C28.2652 28 28.5196 27.8946 28.7071 27.7071C28.8946 27.5196 29 27.2652 29 27C29 26.7348 28.8946 26.4804 28.7071 26.2929C28.5196 26.1054 28.2652 26 28 26H27C26.7348 26 26.4804 26.1054 26.2929 26.2929C26.1054 26.4804 26 26.7348 26 27V28C26 28.2652 26.1054 28.5196 26.2929 28.7071C26.4804 28.8946 26.7348 29 27 29ZM31 26C30.7348 26 30.4804 26.1054 30.2929 26.2929C30.1054 26.4804 30 26.7348 30 27V30C29.7348 30 29.4804 30.1054 29.2929 30.2929C29.1054 30.4804 29 30.7348 29 31C29 31.2652 29.1054 31.5196 29.2929 31.7071C29.4804 31.8946 29.7348 32 30 32H31C31.2652 32 31.5196 31.8946 31.7071 31.7071C31.8946 31.5196 32 31.2652 32 31V27C32 26.7348 31.8946 26.4804 31.7071 26.2929C31.5196 26.1054 31.2652 26 31 26ZM27 30C26.8022 30 26.6089 30.0586 26.4444 30.1685C26.28 30.2784 26.1518 30.4346 26.0761 30.6173C26.0004 30.8 25.9806 31.0011 26.0192 31.1951C26.0578 31.3891 26.153 31.5673 26.2929 31.7071C26.4327 31.847 26.6109 31.9422 26.8049 31.9808C26.9989 32.0194 27.2 31.9996 27.3827 31.9239C27.5654 31.8482 27.7216 31.72 27.8315 31.5556C27.9414 31.3911 28 31.1978 28 31C28 30.7348 27.8946 30.4804 27.7071 30.2929C27.5196 30.1054 27.2652 30 27 30Z" fill="white" stroke="#0D0D0D" stroke-width="0.4" mask="url(#path-2-inside-1_2001_190)"/>
</g>
<defs>
<linearGradient id="paint0_linear_2001_190" x1="0" y1="0" x2="7.13681e-07" y2="51" gradientUnits="userSpaceOnUse">
<stop stop-color="white"/>
<stop offset="1" stop-color="white" stop-opacity="0"/>
</linearGradient>
</defs>
</svg>
